<?xml version="1.0" encoding="utf-8"?>
<!-- Generator: Adobe Illustrator 21.1.0, SVG Export Plug-In . SVG Version: 6.00 Build 0)  -->
<svg version="1.1" id="Layer_1" xmlns="http://www.w3.org/2000/svg" xmlns:xlink="http://www.w3.org/1999/xlink" x="0px" y="0px"
	 viewBox="0 0 448.7 95.2" style="enable-background:new 0 0 448.7 95.2;" xml:space="preserve">
<style type="text/css">
	.st0{fill:#FFFFFF;}
</style>
<g>
	<g>
		<path class="st0" d="M141.2,87.9v-0.4h0.5c0.5,0,0.8-0.1,1.1-0.2s0.4-0.3,0.5-0.6c0.1-0.2,0.1-0.7,0.1-1.5V74.7
			c0-0.8,0-1.3-0.1-1.5s-0.3-0.4-0.5-0.5s-0.6-0.2-1.1-0.2h-0.5v-0.4h7.1c1.9,0,3.4,0.3,4.6,0.8c1.4,0.6,2.5,1.6,3.2,2.9
			s1.1,2.7,1.1,4.3c0,1.1-0.2,2.1-0.5,3.1s-0.8,1.7-1.4,2.3s-1.2,1.1-2,1.5s-1.7,0.7-2.7,0.9c-0.5,0.1-1.2,0.1-2.2,0.1h-7.2V87.9z
			 M147.2,72.9v12.4c0,0.7,0,1.1,0.1,1.2s0.2,0.3,0.3,0.3c0.2,0.1,0.5,0.2,0.9,0.2c1.3,0,2.3-0.4,3-1.3c0.9-1.2,1.4-3.1,1.4-5.6
			c0-2-0.3-3.7-1-4.9c-0.5-1-1.2-1.6-2-1.9C149.5,73,148.5,72.9,147.2,72.9z"/>
		<path class="st0" d="M162.9,76.9v8.7c0,0.8,0.1,1.3,0.3,1.5s0.5,0.3,1.1,0.4v0.4h-5.9v-0.4c0.5,0,0.8-0.2,1.1-0.4
			c0.2-0.2,0.2-0.7,0.2-1.4v-6.4c0-0.8-0.1-1.3-0.3-1.5s-0.5-0.3-1-0.4V77L162.9,76.9L162.9,76.9z M161.3,71.6
			c0.5,0,0.9,0.2,1.3,0.5s0.5,0.8,0.5,1.3s-0.2,0.9-0.5,1.3s-0.8,0.5-1.3,0.5s-0.9-0.2-1.3-0.5s-0.5-0.8-0.5-1.3s0.2-0.9,0.5-1.3
			S160.8,71.6,161.3,71.6z"/>
		<path class="st0" d="M172,77.1h3.7v1.3h-2.1c0.4,0.4,0.6,0.7,0.8,1c0.2,0.4,0.3,0.9,0.3,1.3c0,0.8-0.2,1.5-0.7,2s-1,1-1.8,1.3
			s-1.4,0.5-2,0.5c0,0-0.5,0-1.4-0.1c-0.4,0-0.6,0.1-0.9,0.3s-0.4,0.5-0.4,0.8s0.1,0.5,0.3,0.7s0.6,0.3,1,0.3h2
			c1.6,0,2.8,0.2,3.4,0.5c0.9,0.5,1.3,1.3,1.3,2.3c0,0.7-0.2,1.3-0.6,1.8s-0.9,0.9-1.6,1.2c-1,0.4-2.2,0.6-3.5,0.6
			c-1,0-1.9-0.1-2.7-0.3s-1.4-0.5-1.7-0.8s-0.5-0.7-0.5-1.1s0.1-0.7,0.4-1s0.8-0.5,1.5-0.7c-1-0.5-1.5-1.2-1.5-2.1
			c0-0.5,0.2-1.1,0.6-1.6s1.1-0.9,2-1.3c-1-0.4-1.8-0.9-2.3-1.5s-0.7-1.3-0.7-2.2c0-1.1,0.4-2,1.3-2.8s2-1.2,3.4-1.2
			C170.4,76.6,171.2,76.8,172,77.1z M169.2,89.5c-0.8,0-1.3,0.1-1.6,0.2c-0.4,0.2-0.7,0.6-0.7,1s0.2,0.8,0.7,1.1s1.3,0.5,2.6,0.5
			c1.1,0,1.9-0.1,2.6-0.4s0.9-0.7,0.9-1.2c0-0.2-0.1-0.4-0.2-0.5c-0.2-0.2-0.5-0.4-1-0.5S171.1,89.5,169.2,89.5z M169.9,77.3
			c-0.5,0-0.8,0.2-1.1,0.7s-0.5,1.4-0.5,2.8c0,1.2,0.2,2,0.5,2.4s0.7,0.7,1.1,0.7c0.5,0,0.9-0.2,1.2-0.6s0.5-1.3,0.5-2.5
			c0-1.4-0.2-2.4-0.5-2.9C170.7,77.5,170.4,77.3,169.9,77.3z"/>
		<path class="st0" d="M180.9,76.9v8.7c0,0.8,0.1,1.3,0.3,1.5s0.5,0.3,1.1,0.4v0.4h-5.9v-0.4c0.5,0,0.8-0.2,1.1-0.4
			c0.2-0.2,0.2-0.7,0.2-1.4v-6.4c0-0.8-0.1-1.3-0.3-1.5s-0.5-0.3-1-0.4V77L180.9,76.9L180.9,76.9z M179.2,71.6
			c0.5,0,0.9,0.2,1.3,0.5s0.5,0.8,0.5,1.3s-0.2,0.9-0.5,1.3s-0.8,0.5-1.3,0.5s-0.9-0.2-1.3-0.5s-0.5-0.8-0.5-1.3s0.2-0.9,0.5-1.3
			S178.7,71.6,179.2,71.6z"/>
		<path class="st0" d="M187.2,72.9v4h2.6v1.2h-2.6v6.8c0,0.6,0,1,0.1,1.2s0.2,0.3,0.3,0.4s0.3,0.2,0.4,0.2c0.5,0,1-0.4,1.4-1.2
			l0.4,0.3c-0.6,1.5-1.7,2.2-3.1,2.2c-0.7,0-1.3-0.2-1.8-0.6s-0.8-0.8-0.9-1.3c-0.1-0.3-0.1-1-0.1-2.2V78h-1.4v-0.4
			c1-0.7,1.8-1.4,2.5-2.2s1.3-1.6,1.8-2.6L187.2,72.9L187.2,72.9z"/>
		<path class="st0" d="M196.6,86.3c-1.3,1.2-2.5,1.8-3.6,1.8c-0.6,0-1.1-0.2-1.6-0.6s-0.6-0.9-0.6-1.5c0-0.8,0.4-1.6,1.1-2.3
			s2.3-1.6,4.7-2.7v-1.1c0-0.8,0-1.3-0.1-1.6s-0.3-0.4-0.5-0.6s-0.5-0.2-0.8-0.2c-0.5,0-0.9,0.1-1.3,0.3c-0.2,0.1-0.3,0.3-0.3,0.5
			s0.1,0.4,0.3,0.6c0.3,0.3,0.4,0.7,0.4,1c0,0.4-0.1,0.7-0.4,1s-0.7,0.4-1.2,0.4s-0.9-0.1-1.2-0.4s-0.5-0.6-0.5-1
			c0-0.6,0.2-1.1,0.7-1.6s1.1-0.9,1.9-1.2s1.6-0.4,2.5-0.4c1,0,1.9,0.2,2.5,0.7s1,0.9,1.2,1.4c0.1,0.3,0.2,1.1,0.2,2.3v4.3
			c0,0.5,0,0.8,0.1,0.9s0.1,0.2,0.2,0.3s0.2,0.1,0.3,0.1c0.2,0,0.4-0.1,0.6-0.4l0.4,0.3c-0.4,0.6-0.8,1-1.2,1.3s-0.9,0.4-1.4,0.4
			c-0.6,0-1.1-0.1-1.5-0.4S196.6,86.9,196.6,86.3z M196.6,85.4v-3.7c-0.9,0.6-1.6,1.1-2.1,1.8c-0.3,0.4-0.5,0.8-0.5,1.3
			c0,0.4,0.1,0.7,0.4,0.9c0.2,0.2,0.5,0.3,0.8,0.3C195.6,86.1,196,85.9,196.6,85.4z"/>
		<path class="st0" d="M206.4,72v13.6c0,0.8,0.1,1.3,0.3,1.5s0.5,0.3,1.1,0.4v0.4h-5.9v-0.4c0.5,0,0.8-0.2,1.1-0.4
			c0.2-0.2,0.2-0.7,0.2-1.4V74.3c0-0.8-0.1-1.3-0.3-1.5s-0.5-0.3-1-0.4V72H206.4z"/>
		<path class="st0" d="M228,72v4.3h-0.4c-0.2-1-0.5-1.7-0.8-2.1s-0.7-0.8-1.3-1c-0.3-0.1-0.8-0.2-1.6-0.2h-1.2v12.3
			c0,0.8,0,1.3,0.1,1.5s0.3,0.4,0.5,0.5s0.6,0.2,1.1,0.2h0.5v0.4h-8.2v-0.4h0.5c0.5,0,0.8-0.1,1.1-0.2c0.2-0.1,0.4-0.3,0.5-0.6
			c0.1-0.2,0.1-0.7,0.1-1.5V72.9h-1.1c-1.1,0-1.8,0.2-2.3,0.7c-0.7,0.6-1.1,1.5-1.3,2.7h-0.5V72C213.7,72,228,72,228,72z"/>
		<path class="st0" d="M232.1,76.9v2.5c0.7-1.1,1.4-1.9,1.9-2.3s1.1-0.6,1.6-0.6c0.4,0,0.8,0.1,1,0.4s0.4,0.7,0.4,1.1
			c0,0.5-0.1,0.9-0.4,1.2s-0.6,0.4-0.9,0.4c-0.4,0-0.8-0.1-1.1-0.4s-0.5-0.4-0.5-0.4c-0.1,0-0.2-0.1-0.3-0.1c-0.2,0-0.4,0.1-0.6,0.3
			c-0.3,0.3-0.6,0.6-0.7,1.1c-0.2,0.8-0.4,1.6-0.4,2.5v2.7V86c0,0.4,0,0.7,0.1,0.9c0.1,0.2,0.2,0.4,0.4,0.5s0.5,0.2,0.9,0.2V88h-5.9
			v-0.4c0.5,0,0.8-0.2,1-0.4s0.3-0.8,0.3-1.8v-6.1c0-0.6,0-1-0.1-1.2s-0.2-0.4-0.3-0.5s-0.4-0.2-0.8-0.2V77h4.4V76.9z"/>
		<path class="st0" d="M243.9,86.3c-1.3,1.2-2.5,1.8-3.6,1.8c-0.6,0-1.1-0.2-1.6-0.6s-0.6-0.9-0.6-1.5c0-0.8,0.4-1.6,1.1-2.3
			s2.3-1.6,4.7-2.7v-1.1c0-0.8,0-1.3-0.1-1.6s-0.3-0.4-0.5-0.6s-0.5-0.2-0.8-0.2c-0.5,0-0.9,0.1-1.3,0.3c-0.2,0.1-0.3,0.3-0.3,0.5
			s0.1,0.4,0.3,0.6c0.3,0.3,0.4,0.7,0.4,1c0,0.4-0.1,0.7-0.4,1s-0.7,0.4-1.1,0.4c-0.5,0-0.9-0.1-1.2-0.4s-0.5-0.6-0.5-1
			c0-0.6,0.2-1.1,0.7-1.6s1.1-0.9,1.9-1.2s1.6-0.4,2.5-0.4c1,0,1.9,0.2,2.5,0.7s1,0.9,1.2,1.4c0.1,0.3,0.2,1.1,0.2,2.3v4.3
			c0,0.5,0,0.8,0.1,0.9s0.1,0.2,0.2,0.3s0.2,0.1,0.3,0.1c0.2,0,0.4-0.1,0.6-0.4l0.4,0.3c-0.4,0.6-0.8,1-1.2,1.3s-0.9,0.4-1.4,0.4
			c-0.6,0-1.1-0.1-1.5-0.4C244.2,87.3,244,86.9,243.9,86.3z M243.9,85.4v-3.7c-0.9,0.6-1.6,1.1-2.1,1.8c-0.3,0.4-0.5,0.8-0.5,1.3
			c0,0.4,0.1,0.7,0.4,0.9c0.2,0.2,0.5,0.3,0.8,0.3C242.9,86.1,243.4,85.9,243.9,85.4z"/>
		<path class="st0" d="M253.9,76.9v1.4c0.6-0.6,1.1-1.1,1.6-1.3c0.5-0.2,1.1-0.4,1.7-0.4c0.7,0,1.3,0.2,1.8,0.6s0.8,0.9,0.9,1.5
			c0.1,0.4,0.2,1.3,0.2,2.6v4.3c0,0.8,0.1,1.4,0.2,1.6s0.5,0.3,1,0.4V88h-5.5v-0.4c0.4-0.1,0.7-0.2,0.9-0.5c0.1-0.2,0.2-0.7,0.2-1.5
			v-4.9c0-0.9,0-1.5-0.1-1.7s-0.2-0.4-0.4-0.5s-0.4-0.2-0.6-0.2c-0.7,0-1.3,0.5-1.9,1.4v5.9c0,0.8,0.1,1.3,0.2,1.6s0.4,0.4,0.8,0.4
			V88h-5.5v-0.4c0.5,0,0.8-0.2,1-0.4c0.1-0.2,0.2-0.7,0.2-1.5v-6.4c0-0.8-0.1-1.3-0.2-1.5s-0.5-0.3-1-0.4V77L253.9,76.9L253.9,76.9z
			"/>
		<path class="st0" d="M269.4,76.6l0.2,3.7h-0.4c-0.5-1.1-1-1.9-1.5-2.3s-1-0.6-1.5-0.6c-0.3,0-0.6,0.1-0.8,0.3s-0.3,0.5-0.3,0.7
			s0.1,0.4,0.2,0.6c0.2,0.3,0.9,0.9,2.1,1.6s1.9,1.4,2.3,2s0.5,1.2,0.5,1.8c0,0.6-0.2,1.2-0.5,1.8s-0.7,1-1.3,1.3s-1.2,0.5-1.8,0.5
			c-0.5,0-1.2-0.2-2.1-0.5c-0.2-0.1-0.4-0.1-0.5-0.1c-0.3,0-0.5,0.2-0.6,0.6H263l-0.2-3.9h0.4c0.4,1,0.8,1.8,1.4,2.3
			s1.2,0.8,1.7,0.8c0.4,0,0.7-0.1,0.9-0.3s0.4-0.5,0.4-0.8c0-0.4-0.1-0.7-0.4-1s-0.8-0.7-1.6-1.2c-1.2-0.8-2-1.5-2.3-1.9
			c-0.5-0.6-0.8-1.3-0.8-2.1c0-0.8,0.3-1.6,0.9-2.3s1.4-1,2.5-1c0.6,0,1.2,0.1,1.7,0.4c0.2,0.1,0.4,0.2,0.5,0.2s0.3,0,0.3-0.1
			c0.1-0.1,0.2-0.2,0.4-0.5H269.4z"/>
		<path class="st0" d="M276.2,78.1v7.6c0,0.7,0.1,1.2,0.2,1.4c0.2,0.3,0.7,0.4,1.4,0.4v0.4h-6.5v-0.4c0.5,0,0.8-0.1,1-0.2
			s0.3-0.3,0.4-0.4s0.1-0.6,0.1-1.2v-7.6h-1.6V77h1.6v-0.8v-0.6c0-1.1,0.4-2.1,1.2-2.8s1.9-1.1,3.3-1.1c1,0,1.7,0.2,2.1,0.5
			s0.7,0.8,0.7,1.2c0,0.4-0.1,0.7-0.4,0.9s-0.7,0.4-1.1,0.4s-0.7-0.1-1-0.3s-0.4-0.4-0.4-0.7c0-0.1,0-0.2,0.1-0.4c0-0.1,0-0.3,0-0.4
			c0-0.2,0-0.3-0.1-0.4s-0.3-0.2-0.5-0.2s-0.4,0.1-0.6,0.3s-0.2,0.5-0.2,0.9v2.1V77h1.6v1.1C277.5,78.1,276.2,78.1,276.2,78.1z"/>
		<path class="st0" d="M284.2,76.6c1,0,1.8,0.2,2.7,0.7s1.4,1.2,1.9,2.1s0.6,1.9,0.6,3c0,1.6-0.4,2.9-1.2,3.9
			c-1,1.3-2.3,1.9-3.9,1.9s-2.9-0.6-3.8-1.7s-1.3-2.5-1.3-4c0-1.6,0.5-2.9,1.4-4.1S282.7,76.6,284.2,76.6z M284.3,77.4
			c-0.4,0-0.7,0.2-1,0.5s-0.5,0.9-0.6,1.8s-0.1,2.1-0.1,3.7c0,0.8,0.1,1.6,0.2,2.3c0.1,0.6,0.3,1,0.6,1.3s0.6,0.4,1,0.4
			s0.6-0.1,0.9-0.3c0.3-0.3,0.5-0.6,0.6-1.1c0.2-0.7,0.2-2.2,0.2-4.5c0-1.3-0.1-2.2-0.2-2.7s-0.4-0.9-0.7-1.1
			C284.9,77.5,284.6,77.4,284.3,77.4z"/>
		<path class="st0" d="M295.3,76.9v2.5c0.7-1.1,1.4-1.9,1.9-2.3s1.1-0.6,1.6-0.6c0.4,0,0.8,0.1,1,0.4c0.3,0.3,0.4,0.7,0.4,1.1
			c0,0.5-0.1,0.9-0.4,1.2s-0.6,0.4-0.9,0.4c-0.4,0-0.8-0.1-1.1-0.4s-0.5-0.4-0.5-0.4c-0.1,0-0.2-0.1-0.3-0.1c-0.2,0-0.4,0.1-0.6,0.3
			c-0.3,0.3-0.6,0.6-0.7,1.1c-0.2,0.8-0.4,1.6-0.4,2.5v2.7V86c0,0.4,0,0.7,0.1,0.9c0.1,0.2,0.2,0.4,0.4,0.5s0.5,0.2,0.9,0.2V88h-5.9
			v-0.4c0.5,0,0.8-0.2,1-0.4s0.3-0.8,0.3-1.8v-6.1c0-0.6,0-1-0.1-1.2s-0.2-0.4-0.3-0.5s-0.4-0.2-0.8-0.2V77h4.4V76.9z"/>
		<path class="st0" d="M305.5,76.9v1.4c0.6-0.7,1.2-1.1,1.7-1.4s1.1-0.4,1.7-0.4c0.7,0,1.3,0.2,1.8,0.5s0.8,0.8,1.1,1.5
			c0.6-0.7,1.2-1.2,1.8-1.5s1.2-0.5,1.8-0.5c0.8,0,1.4,0.2,1.8,0.5s0.8,0.8,0.9,1.3s0.3,1.4,0.3,2.6v4.5c0,0.8,0.1,1.4,0.2,1.6
			s0.5,0.3,1,0.4v0.4h-5.7v-0.4c0.4,0,0.8-0.2,1-0.5c0.1-0.2,0.2-0.7,0.2-1.5v-4.7c0-1,0-1.6-0.1-1.9s-0.2-0.5-0.4-0.6
			S314.2,78,314,78c-0.3,0-0.7,0.1-1,0.4s-0.7,0.6-1,1.1v5.9c0,0.8,0.1,1.3,0.2,1.5c0.2,0.3,0.5,0.4,1,0.5v0.4h-5.7v-0.4
			c0.3,0,0.5-0.1,0.7-0.2s0.3-0.3,0.4-0.5s0.1-0.6,0.1-1.2v-4.7c0-1,0-1.6-0.1-1.9s-0.2-0.4-0.4-0.6s-0.4-0.2-0.6-0.2
			c-0.3,0-0.6,0.1-0.9,0.2c-0.4,0.2-0.8,0.7-1.2,1.2v5.9c0,0.8,0.1,1.3,0.2,1.5s0.5,0.4,1,0.4v0.4h-5.6v-0.4c0.5,0,0.8-0.2,1-0.4
			c0.1-0.2,0.2-0.7,0.2-1.5v-6.1c0-0.8-0.1-1.3-0.2-1.5s-0.5-0.3-1-0.4V77L305.5,76.9L305.5,76.9z"/>
		<path class="st0" d="M326.7,86.3c-1.3,1.2-2.5,1.8-3.6,1.8c-0.6,0-1.1-0.2-1.6-0.6s-0.6-0.9-0.6-1.5c0-0.8,0.4-1.6,1.1-2.3
			s2.3-1.6,4.7-2.7v-1.1c0-0.8,0-1.3-0.1-1.6s-0.3-0.4-0.5-0.6s-0.5-0.2-0.8-0.2c-0.5,0-0.9,0.1-1.3,0.3c-0.2,0.1-0.3,0.3-0.3,0.5
			s0.1,0.4,0.3,0.6c0.3,0.3,0.4,0.7,0.4,1c0,0.4-0.1,0.7-0.4,1s-0.7,0.4-1.1,0.4c-0.5,0-0.9-0.1-1.2-0.4s-0.5-0.6-0.5-1
			c0-0.6,0.2-1.1,0.7-1.6s1.1-0.9,1.9-1.2s1.6-0.4,2.5-0.4c1,0,1.9,0.2,2.5,0.7s1,0.9,1.2,1.4c0.1,0.3,0.2,1.1,0.2,2.3v4.3
			c0,0.5,0,0.8,0.1,0.9s0.1,0.2,0.2,0.3s0.2,0.1,0.3,0.1c0.2,0,0.4-0.1,0.6-0.4l0.4,0.3c-0.4,0.6-0.8,1-1.2,1.3s-0.9,0.4-1.4,0.4
			c-0.6,0-1.1-0.1-1.5-0.4S326.8,86.9,326.7,86.3z M326.7,85.4v-3.7c-0.9,0.6-1.6,1.1-2.1,1.8c-0.3,0.4-0.5,0.8-0.5,1.3
			c0,0.4,0.1,0.7,0.4,0.9c0.2,0.2,0.5,0.3,0.8,0.3C325.7,86.1,326.2,85.9,326.7,85.4z"/>
		<path class="st0" d="M336.6,72.9v4h2.6v1.2h-2.6v6.8c0,0.6,0,1,0.1,1.2s0.2,0.3,0.3,0.4s0.3,0.2,0.4,0.2c0.5,0,1-0.4,1.4-1.2
			l0.4,0.3c-0.6,1.5-1.7,2.2-3.1,2.2c-0.7,0-1.3-0.2-1.8-0.6s-0.8-0.8-0.9-1.3c-0.1-0.3-0.1-1-0.1-2.2V78h-1.4v-0.4
			c1-0.7,1.8-1.4,2.5-2.2s1.3-1.6,1.8-2.6L336.6,72.9L336.6,72.9z"/>
		<path class="st0" d="M344.2,76.9v8.7c0,0.8,0.1,1.3,0.3,1.5s0.5,0.3,1.1,0.4v0.4h-5.9v-0.4c0.5,0,0.8-0.2,1.1-0.4
			c0.2-0.2,0.2-0.7,0.2-1.4v-6.4c0-0.8-0.1-1.3-0.3-1.5s-0.5-0.3-1-0.4V77L344.2,76.9L344.2,76.9z M342.5,71.6
			c0.5,0,0.9,0.2,1.3,0.5s0.5,0.8,0.5,1.3s-0.2,0.9-0.5,1.3s-0.8,0.5-1.3,0.5s-0.9-0.2-1.3-0.5s-0.5-0.8-0.5-1.3s0.2-0.9,0.5-1.3
			S342,71.6,342.5,71.6z"/>
		<path class="st0" d="M351.4,76.6c1,0,1.8,0.2,2.7,0.7s1.4,1.2,1.9,2.1s0.6,1.9,0.6,3c0,1.6-0.4,2.9-1.2,3.9
			c-1,1.3-2.3,1.9-3.9,1.9s-2.9-0.6-3.8-1.7s-1.3-2.5-1.3-4c0-1.6,0.5-2.9,1.4-4.1S349.8,76.6,351.4,76.6z M351.4,77.4
			c-0.4,0-0.7,0.2-1,0.5s-0.5,0.9-0.6,1.8s-0.1,2.1-0.1,3.7c0,0.8,0.1,1.6,0.2,2.3c0.1,0.6,0.3,1,0.6,1.3s0.6,0.4,1,0.4
			s0.6-0.1,0.9-0.3c0.3-0.3,0.5-0.6,0.6-1.1c0.2-0.7,0.2-2.2,0.2-4.5c0-1.3-0.1-2.2-0.2-2.7s-0.4-0.9-0.7-1.1
			C352,77.5,351.8,77.4,351.4,77.4z"/>
		<path class="st0" d="M362.3,76.9v1.4c0.6-0.6,1.1-1.1,1.6-1.3s1.1-0.4,1.7-0.4c0.7,0,1.3,0.2,1.8,0.6s0.8,0.9,0.9,1.5
			c0.1,0.4,0.2,1.3,0.2,2.6v4.3c0,0.8,0.1,1.4,0.2,1.6s0.5,0.3,1,0.4V88h-5.5v-0.4c0.4-0.1,0.7-0.2,0.9-0.5c0.1-0.2,0.2-0.7,0.2-1.5
			v-4.9c0-0.9,0-1.5-0.1-1.7s-0.2-0.4-0.4-0.5s-0.4-0.2-0.6-0.2c-0.7,0-1.3,0.5-1.9,1.4v5.9c0,0.8,0.1,1.3,0.2,1.6s0.4,0.4,0.8,0.4
			V88h-5.5v-0.4c0.5,0,0.8-0.2,1-0.4c0.1-0.2,0.2-0.7,0.2-1.5v-6.4c0-0.8-0.1-1.3-0.2-1.5s-0.5-0.3-1-0.4V77L362.3,76.9L362.3,76.9z
			"/>
		<path class="st0" d="M384.3,83.4h-5.6l-0.7,1.5c-0.2,0.5-0.3,0.9-0.3,1.3s0.2,0.8,0.5,1c0.2,0.1,0.7,0.2,1.6,0.3v0.4h-5.3v-0.4
			c0.6-0.1,1-0.3,1.4-0.7s0.8-1.2,1.4-2.4l5.7-12.7h0.2l5.7,13c0.5,1.2,1,2,1.3,2.3c0.3,0.2,0.6,0.4,1.1,0.4v0.4h-7.6v-0.4h0.3
			c0.6,0,1.1-0.1,1.3-0.3c0.2-0.1,0.3-0.3,0.3-0.5c0-0.1,0-0.3-0.1-0.4c0-0.1-0.1-0.4-0.4-0.9L384.3,83.4z M383.9,82.5l-2.4-5.5
			l-2.4,5.5H383.9z"/>
		<path class="st0" d="M399.2,77.1h3.7v1.3h-2.1c0.4,0.4,0.6,0.7,0.8,1c0.2,0.4,0.3,0.9,0.3,1.3c0,0.8-0.2,1.5-0.7,2s-1,1-1.8,1.3
			s-1.4,0.5-2,0.5c0,0-0.5,0-1.4-0.1c-0.4,0-0.6,0.1-0.9,0.3s-0.4,0.5-0.4,0.8s0.1,0.5,0.3,0.7s0.6,0.3,1,0.3h2
			c1.6,0,2.8,0.2,3.4,0.5c0.9,0.5,1.3,1.3,1.3,2.3c0,0.7-0.2,1.3-0.6,1.8s-0.9,0.9-1.6,1.2c-1,0.4-2.2,0.6-3.5,0.6
			c-1,0-1.9-0.1-2.7-0.3s-1.4-0.5-1.7-0.8s-0.5-0.7-0.5-1.1s0.1-0.7,0.4-1s0.8-0.5,1.5-0.7c-1-0.5-1.5-1.2-1.5-2.1
			c0-0.5,0.2-1.1,0.6-1.6s1.1-0.9,2-1.3c-1-0.4-1.8-0.9-2.3-1.5s-0.7-1.3-0.7-2.2c0-1.1,0.4-2,1.3-2.8s2-1.2,3.4-1.2
			C397.6,76.6,398.4,76.8,399.2,77.1z M396.4,89.5c-0.8,0-1.3,0.1-1.6,0.2c-0.4,0.2-0.7,0.6-0.7,1s0.2,0.8,0.7,1.1s1.3,0.5,2.6,0.5
			c1.1,0,1.9-0.1,2.6-0.4s0.9-0.7,0.9-1.2c0-0.2-0.1-0.4-0.2-0.5c-0.2-0.2-0.5-0.4-1-0.5S398.3,89.5,396.4,89.5z M397.1,77.3
			c-0.5,0-0.8,0.2-1.1,0.7s-0.5,1.4-0.5,2.8c0,1.2,0.2,2,0.5,2.4s0.7,0.7,1.1,0.7c0.5,0,0.9-0.2,1.2-0.6s0.5-1.3,0.5-2.5
			c0-1.4-0.2-2.4-0.5-2.9C397.9,77.5,397.6,77.3,397.1,77.3z"/>
		<path class="st0" d="M413,82h-6c0.1,1.5,0.5,2.6,1.2,3.4c0.5,0.6,1.2,1,1.9,1c0.5,0,0.9-0.1,1.3-0.4s0.8-0.7,1.2-1.4l0.4,0.3
			c-0.6,1.2-1.2,2.1-2,2.6s-1.6,0.8-2.5,0.8c-1.6,0-2.9-0.6-3.7-1.9c-0.7-1-1-2.3-1-3.8c0-1.8,0.5-3.3,1.5-4.4s2.1-1.6,3.5-1.6
			c1.1,0,2.1,0.5,2.9,1.4S413,80.2,413,82z M410.2,81.2c0-1.3-0.1-2.1-0.2-2.6s-0.3-0.8-0.6-1.1c-0.2-0.1-0.4-0.2-0.7-0.2
			c-0.4,0-0.7,0.2-1,0.6c-0.5,0.7-0.7,1.6-0.7,2.9v0.4C407,81.2,410.2,81.2,410.2,81.2z"/>
		<path class="st0" d="M418.5,76.9v1.4c0.6-0.6,1.1-1.1,1.6-1.3s1.1-0.4,1.7-0.4c0.7,0,1.3,0.2,1.8,0.6s0.8,0.9,0.9,1.5
			c0.1,0.4,0.2,1.3,0.2,2.6v4.3c0,0.8,0.1,1.4,0.2,1.6s0.5,0.3,1,0.4V88h-5.5v-0.4c0.4-0.1,0.7-0.2,0.9-0.5c0.1-0.2,0.2-0.7,0.2-1.5
			v-4.9c0-0.9,0-1.5-0.1-1.7s-0.2-0.4-0.4-0.5s-0.4-0.2-0.6-0.2c-0.7,0-1.3,0.5-1.9,1.4v5.9c0,0.8,0.1,1.3,0.2,1.6s0.4,0.4,0.8,0.4
			V88H414v-0.4c0.5,0,0.8-0.2,1-0.4c0.1-0.2,0.2-0.7,0.2-1.5v-6.4c0-0.8-0.1-1.3-0.2-1.5s-0.5-0.3-1-0.4V77L418.5,76.9L418.5,76.9z"
			/>
		<path class="st0" d="M436,85.1l0.4,0.3c-0.5,1-1.2,1.7-1.9,2.2s-1.6,0.7-2.5,0.7c-1.5,0-2.6-0.6-3.5-1.7s-1.3-2.4-1.3-4
			c0-1.5,0.4-2.8,1.2-3.9c1-1.4,2.3-2.1,4-2.1c1.1,0,2,0.3,2.7,0.9s1,1.2,1,1.9c0,0.4-0.1,0.8-0.4,1.1s-0.6,0.4-1.1,0.4
			s-0.8-0.2-1.1-0.5s-0.5-0.8-0.6-1.6c0-0.5-0.2-0.8-0.3-1s-0.4-0.3-0.6-0.3c-0.4,0-0.7,0.2-1,0.6c-0.4,0.6-0.6,1.5-0.6,2.8
			c0,1,0.2,2,0.5,3s0.8,1.6,1.3,2.1c0.4,0.3,0.9,0.5,1.5,0.5c0.4,0,0.7-0.1,1.1-0.3S435.5,85.6,436,85.1z"/>
		<path class="st0" d="M442.4,88.3l-3.5-8.1c-0.5-1.2-0.9-2-1.2-2.3s-0.6-0.5-0.9-0.6v-0.4h5.8v0.4c-0.4,0-0.7,0.1-0.8,0.2
			s-0.2,0.3-0.2,0.5c0,0.3,0.2,0.9,0.6,1.8l1.9,4.3l1.3-3.3c0.5-1.2,0.7-2,0.7-2.5c0-0.3-0.1-0.5-0.3-0.7s-0.5-0.3-1-0.3v-0.4h3.7
			v0.4c-0.4,0-0.7,0.2-0.9,0.4s-0.6,1-1.1,2.4l-3.1,8.1c-0.8,2-1.4,3.3-1.8,3.8c-0.5,0.7-1.2,1-2,1c-0.6,0-1.2-0.2-1.6-0.6
			s-0.6-0.8-0.6-1.3s0.1-0.8,0.4-1.1s0.6-0.4,1-0.4s0.7,0.1,0.9,0.4s0.4,0.6,0.4,1.2c0,0.3,0,0.5,0.1,0.6s0.2,0.1,0.3,0.1
			c0.2,0,0.4-0.1,0.6-0.3c0.3-0.3,0.7-1.1,1.1-2.2L442.4,88.3z"/>
	</g>
</g>
<g>
	<path class="st0" d="M151.6,42.6h-6.2l-0.7,1.7c-0.2,0.6-0.4,1-0.4,1.4c0,0.5,0.2,0.9,0.6,1.1c0.2,0.1,0.8,0.2,1.7,0.3v0.5h-5.8
		v-0.5c0.6-0.1,1.1-0.4,1.5-0.8c0.4-0.4,0.9-1.3,1.5-2.6l6.3-13.9h0.2l6.3,14.3c0.6,1.4,1.1,2.2,1.5,2.6c0.3,0.3,0.7,0.4,1.2,0.5
		v0.5h-8.5v-0.5h0.3c0.7,0,1.2-0.1,1.4-0.3c0.2-0.1,0.3-0.3,0.3-0.6c0-0.2,0-0.3-0.1-0.5c0-0.1-0.1-0.4-0.4-1L151.6,42.6L151.6,42.6
		z M151.2,41.7l-2.6-6l-2.7,6H151.2L151.2,41.7z"/>
	<path class="st0" d="M170.1,35.6V45c0,0.9,0.1,1.5,0.3,1.7s0.5,0.4,1,0.4v0.5h-4.9V46c-0.6,0.7-1.2,1.2-1.7,1.5
		c-0.6,0.3-1.2,0.5-1.9,0.5s-1.3-0.2-1.8-0.6c-0.5-0.4-0.9-0.9-1.1-1.5c-0.2-0.6-0.3-1.5-0.3-2.9v-4.8c0-0.9-0.1-1.5-0.3-1.7
		s-0.5-0.4-1-0.4v-0.5h4.9v8.2c0,0.9,0,1.4,0.1,1.7c0.1,0.2,0.2,0.4,0.4,0.6c0.2,0.1,0.4,0.2,0.6,0.2c0.3,0,0.6-0.1,0.8-0.2
		c0.3-0.2,0.8-0.7,1.2-1.4v-6.4c0-0.9-0.1-1.5-0.3-1.7s-0.5-0.4-1-0.4v-0.5L170.1,35.6L170.1,35.6z"/>
	<path class="st0" d="M179.9,35.2l0.2,4.1h-0.4c-0.5-1.2-1.1-2.1-1.6-2.5c-0.6-0.4-1.1-0.7-1.7-0.7c-0.4,0-0.7,0.1-0.9,0.4
		c-0.2,0.2-0.4,0.5-0.4,0.8c0,0.2,0.1,0.5,0.3,0.7c0.3,0.4,1,1,2.3,1.8c1.3,0.9,2.1,1.6,2.5,2.2c0.4,0.6,0.6,1.3,0.6,2
		s-0.2,1.3-0.5,2c-0.3,0.6-0.8,1.1-1.4,1.5c-0.6,0.3-1.3,0.5-2,0.5c-0.6,0-1.3-0.2-2.3-0.5c-0.3-0.1-0.4-0.1-0.5-0.1
		c-0.3,0-0.5,0.2-0.7,0.6H173l-0.2-4.3h0.4c0.4,1.1,0.9,2,1.6,2.6c0.7,0.6,1.3,0.9,1.9,0.9c0.4,0,0.7-0.1,1-0.4
		c0.3-0.3,0.4-0.6,0.4-0.9c0-0.4-0.1-0.8-0.4-1.1c-0.3-0.3-0.8-0.8-1.7-1.4c-1.3-0.9-2.2-1.6-2.6-2.1c-0.6-0.7-0.9-1.5-0.9-2.3
		c0-0.9,0.3-1.8,1-2.5c0.6-0.8,1.6-1.1,2.8-1.1c0.7,0,1.3,0.2,1.9,0.5c0.2,0.1,0.4,0.2,0.6,0.2c0.2,0,0.3,0,0.4-0.1
		c0.1-0.1,0.2-0.3,0.5-0.6h0.2V35.2z"/>
	<path class="st0" d="M186.2,31.2v4.4h2.9v1.3h-2.9v7.4c0,0.7,0,1.1,0.1,1.4c0.1,0.2,0.2,0.4,0.3,0.5c0.2,0.1,0.3,0.2,0.5,0.2
		c0.6,0,1.1-0.4,1.6-1.3l0.4,0.3c-0.7,1.6-1.8,2.5-3.4,2.5c-0.8,0-1.4-0.2-1.9-0.6c-0.5-0.4-0.9-0.9-1-1.4c-0.1-0.3-0.1-1.1-0.1-2.4
		V37h-1.6v-0.5c1.1-0.8,2-1.6,2.8-2.4c0.8-0.8,1.4-1.8,2-2.8L186.2,31.2L186.2,31.2z"/>
	<path class="st0" d="M195,35.6v2.7c0.8-1.2,1.5-2.1,2.1-2.5s1.2-0.6,1.7-0.6s0.9,0.2,1.1,0.5c0.3,0.3,0.4,0.7,0.4,1.2
		c0,0.6-0.1,1-0.4,1.3c-0.3,0.3-0.6,0.5-1,0.5c-0.5,0-0.9-0.1-1.2-0.4c-0.3-0.3-0.5-0.5-0.6-0.5c-0.1-0.1-0.2-0.1-0.3-0.1
		c-0.2,0-0.5,0.1-0.7,0.3c-0.4,0.3-0.6,0.7-0.8,1.3c-0.3,0.8-0.4,1.8-0.4,2.8v2.8v0.7c0,0.5,0,0.8,0.1,0.9c0.1,0.2,0.3,0.4,0.5,0.5
		s0.5,0.2,1,0.2v0.5H190v-0.5c0.5,0,0.9-0.2,1.1-0.4c0.2-0.2,0.3-0.9,0.3-1.9v-6.7c0-0.7,0-1.1-0.1-1.3s-0.2-0.4-0.4-0.5
		s-0.5-0.2-0.9-0.2v-0.5L195,35.6L195,35.6z"/>
	<path class="st0" d="M207,45.8c-1.5,1.3-2.8,1.9-4,1.9c-0.7,0-1.3-0.2-1.7-0.7c-0.5-0.5-0.7-1-0.7-1.7c0-0.9,0.4-1.7,1.2-2.5
		c0.8-0.7,2.5-1.7,5.2-2.9v-1.2c0-0.9-0.1-1.5-0.2-1.7c-0.1-0.2-0.3-0.4-0.6-0.6c-0.3-0.2-0.6-0.3-0.9-0.3c-0.6,0-1,0.1-1.4,0.4
		c-0.2,0.2-0.3,0.3-0.3,0.5s0.1,0.4,0.4,0.7c0.3,0.4,0.5,0.7,0.5,1.1c0,0.4-0.2,0.8-0.5,1.1s-0.7,0.4-1.2,0.4s-1-0.2-1.4-0.5
		s-0.5-0.7-0.5-1.1c0-0.6,0.2-1.2,0.7-1.8s1.2-1,2-1.3c0.9-0.3,1.8-0.5,2.7-0.5c1.1,0,2,0.2,2.7,0.7s1.1,1,1.3,1.6
		c0.1,0.4,0.2,1.2,0.2,2.5v4.7c0,0.6,0,0.9,0.1,1c0,0.1,0.1,0.2,0.2,0.3c0.1,0.1,0.2,0.1,0.3,0.1c0.2,0,0.5-0.2,0.7-0.5l0.4,0.3
		c-0.4,0.6-0.9,1.1-1.3,1.4c-0.5,0.3-1,0.4-1.6,0.4c-0.7,0-1.2-0.2-1.6-0.5C207.4,47,207.1,46.5,207,45.8L207,45.8z M207,44.9v-4
		c-1,0.6-1.8,1.3-2.3,2c-0.3,0.5-0.5,0.9-0.5,1.4c0,0.4,0.1,0.7,0.4,1c0.2,0.2,0.5,0.3,0.9,0.3C206,45.6,206.5,45.4,207,44.9
		L207,44.9z"/>
	<path class="st0" d="M217.5,30.1v15c0,0.9,0.1,1.4,0.3,1.6c0.2,0.2,0.6,0.4,1.2,0.4v0.5h-6.5v-0.5c0.5,0,0.9-0.2,1.2-0.5
		c0.2-0.2,0.3-0.7,0.3-1.6V32.6c0-0.8-0.1-1.4-0.3-1.6c-0.2-0.2-0.6-0.4-1.1-0.4v-0.5H217.5L217.5,30.1z"/>
	<path class="st0" d="M223,29.7c0.6,0,1,0.2,1.4,0.6c0.4,0.4,0.6,0.9,0.6,1.4c0,0.6-0.2,1-0.6,1.4c-0.4,0.4-0.9,0.6-1.4,0.6
		c-0.6,0-1-0.2-1.4-0.6c-0.4-0.4-0.6-0.9-0.6-1.4s0.2-1,0.6-1.4C222,29.9,222.5,29.7,223,29.7L223,29.7z M224.8,35.6v9.6
		c0,0.9,0.1,1.4,0.3,1.6c0.2,0.2,0.6,0.4,1.2,0.4v0.5h-6.5v-0.5c0.5,0,0.9-0.2,1.2-0.5c0.2-0.2,0.3-0.7,0.3-1.6v-7
		c0-0.9-0.1-1.4-0.3-1.6c-0.2-0.2-0.6-0.4-1.1-0.4v-0.5L224.8,35.6L224.8,35.6z"/>
	<path class="st0" d="M233.3,45.8c-1.5,1.3-2.8,1.9-4,1.9c-0.7,0-1.3-0.2-1.7-0.7c-0.5-0.5-0.7-1-0.7-1.7c0-0.9,0.4-1.7,1.2-2.5
		c0.8-0.7,2.5-1.7,5.2-2.9v-1.2c0-0.9-0.1-1.5-0.2-1.7c-0.1-0.2-0.3-0.4-0.6-0.6c-0.3-0.2-0.6-0.3-0.9-0.3c-0.6,0-1,0.1-1.4,0.4
		c-0.2,0.2-0.3,0.3-0.3,0.5s0.1,0.4,0.4,0.7c0.3,0.4,0.5,0.7,0.5,1.1c0,0.4-0.2,0.8-0.5,1.1s-0.7,0.4-1.2,0.4s-1-0.2-1.4-0.5
		s-0.5-0.7-0.5-1.1c0-0.6,0.2-1.2,0.7-1.8s1.2-1,2.1-1.3c0.9-0.3,1.8-0.5,2.7-0.5c1.1,0,2,0.2,2.7,0.7s1.1,1,1.3,1.6
		c0.1,0.4,0.2,1.2,0.2,2.5v4.7c0,0.6,0,0.9,0.1,1c0,0.1,0.1,0.2,0.2,0.3c0.1,0.1,0.2,0.1,0.3,0.1c0.2,0,0.4-0.2,0.7-0.5l0.4,0.3
		c-0.4,0.6-0.9,1.1-1.3,1.4c-0.5,0.3-1,0.4-1.6,0.4c-0.7,0-1.2-0.2-1.6-0.5C233.6,47,233.4,46.5,233.3,45.8L233.3,45.8z M233.3,44.9
		v-4c-1,0.6-1.8,1.3-2.3,2c-0.3,0.5-0.5,0.9-0.5,1.4c0,0.4,0.1,0.7,0.4,1c0.2,0.2,0.5,0.3,0.9,0.3C232.3,45.6,232.8,45.4,233.3,44.9
		L233.3,44.9z"/>
	<path class="st0" d="M243.7,35.6v1.6c0.6-0.7,1.2-1.2,1.8-1.5c0.6-0.3,1.2-0.5,1.8-0.5c0.8,0,1.4,0.2,1.9,0.7c0.5,0.4,0.9,1,1,1.6
		c0.1,0.5,0.2,1.4,0.2,2.8V45c0,0.9,0.1,1.5,0.2,1.7c0.2,0.2,0.5,0.4,1.1,0.4v0.5h-6v-0.5c0.5-0.1,0.8-0.2,1-0.6
		c0.1-0.2,0.2-0.7,0.2-1.6v-5.4c0-1,0-1.6-0.1-1.9c-0.1-0.3-0.2-0.5-0.4-0.6c-0.2-0.1-0.4-0.2-0.6-0.2c-0.7,0-1.4,0.5-2.1,1.6v6.5
		c0,0.9,0.1,1.5,0.2,1.7c0.2,0.2,0.5,0.4,0.9,0.5v0.5h-6.1v-0.5c0.5-0.1,0.9-0.2,1.1-0.5c0.1-0.2,0.2-0.7,0.2-1.7v-6.8
		c0-0.9-0.1-1.5-0.3-1.7s-0.5-0.4-1-0.4v-0.5h5V35.6z"/>
	<path class="st0" d="M275.6,29.7v6.2h-0.5c-0.6-1.7-1.4-3-2.6-3.8c-1.2-0.9-2.4-1.3-3.8-1.3c-1.3,0-2.4,0.4-3.3,1.1
		c-0.9,0.7-1.5,1.8-1.8,3.1c-0.4,1.3-0.5,2.7-0.5,4c0,1.7,0.2,3.1,0.6,4.4c0.4,1.3,1,2.2,1.9,2.8s1.9,0.9,3.1,0.9
		c0.4,0,0.8,0,1.3-0.1c0.4-0.1,0.9-0.2,1.4-0.4V43c0-0.7,0-1.1-0.1-1.3s-0.3-0.4-0.6-0.6c-0.3-0.2-0.6-0.2-1.1-0.2h-0.5v-0.6h8.5
		v0.5c-0.6,0-1.1,0.1-1.4,0.3c-0.2,0.1-0.4,0.3-0.6,0.7c-0.1,0.2-0.1,0.6-0.1,1.2v3.6c-1.1,0.5-2.3,0.9-3.5,1.1
		c-1.2,0.3-2.5,0.4-3.8,0.4c-1.7,0-3-0.2-4.1-0.7s-2.1-1-2.9-1.8c-0.8-0.7-1.5-1.6-2-2.5c-0.6-1.2-0.9-2.5-0.9-4
		c0-2.6,0.9-4.9,2.8-6.7c1.8-1.8,4.2-2.7,7-2.7c0.9,0,1.6,0.1,2.3,0.2c0.4,0.1,1,0.3,1.8,0.6c0.9,0.3,1.4,0.5,1.5,0.5
		c0.2,0,0.5-0.1,0.7-0.3s0.4-0.5,0.6-1L275.6,29.7L275.6,29.7z"/>
	<path class="st0" d="M283.9,35.2c1,0,2,0.3,2.9,0.8s1.6,1.3,2.1,2.3s0.7,2.1,0.7,3.3c0,1.7-0.4,3.1-1.3,4.3c-1,1.4-2.5,2.1-4.3,2.1
		s-3.2-0.6-4.2-1.9c-1-1.3-1.5-2.7-1.5-4.4s0.5-3.2,1.5-4.5C280.8,35.8,282.2,35.2,283.9,35.2L283.9,35.2z M284,36.1
		c-0.4,0-0.8,0.2-1.1,0.5c-0.3,0.3-0.5,1-0.6,2s-0.1,2.3-0.1,4.1c0,0.9,0.1,1.8,0.2,2.6c0.1,0.6,0.3,1.1,0.6,1.4
		c0.3,0.3,0.7,0.5,1.1,0.5s0.7-0.1,1-0.3c0.3-0.3,0.6-0.7,0.7-1.2c0.2-0.8,0.3-2.5,0.3-4.9c0-1.5-0.1-2.5-0.2-3
		c-0.2-0.5-0.4-0.9-0.7-1.2C284.7,36.2,284.4,36.1,284,36.1L284,36.1z"/>
	<path class="st0" d="M295.3,48l-4.1-9.3c-0.5-1.1-0.9-1.8-1.1-2.1c-0.2-0.2-0.5-0.4-0.9-0.5v-0.5h6.4v0.5c-0.4,0-0.7,0.1-0.8,0.2
		c-0.2,0.2-0.3,0.4-0.3,0.7s0.2,0.9,0.6,1.8l2,4.5l1.6-3.9c0.5-1.1,0.7-1.9,0.7-2.4c0-0.3-0.1-0.5-0.3-0.6c-0.2-0.2-0.5-0.3-1-0.3
		v-0.5h3.9v0.5c-0.4,0.1-0.7,0.2-0.9,0.4c-0.2,0.2-0.6,0.9-1.1,2l-4,9.5L295.3,48L295.3,48z"/>
	<path class="st0" d="M311.4,41.2h-6.6c0.1,1.6,0.5,2.9,1.3,3.8c0.6,0.7,1.3,1.1,2.1,1.1c0.5,0,1-0.1,1.4-0.4
		c0.4-0.3,0.9-0.8,1.4-1.6l0.4,0.3c-0.7,1.3-1.4,2.3-2.2,2.8c-0.8,0.6-1.7,0.8-2.7,0.8c-1.8,0-3.1-0.7-4.1-2.1
		c-0.7-1.1-1.1-2.5-1.1-4.1c0-2,0.5-3.6,1.6-4.8s2.4-1.8,3.8-1.8c1.2,0,2.3,0.5,3.2,1.5C310.9,37.7,311.4,39.2,311.4,41.2
		L311.4,41.2z M308.3,40.3c0-1.4-0.1-2.3-0.2-2.8s-0.4-0.9-0.7-1.2c-0.2-0.2-0.4-0.2-0.7-0.2c-0.4,0-0.8,0.2-1.1,0.7
		c-0.5,0.8-0.8,1.8-0.8,3.1v0.4H308.3L308.3,40.3z"/>
	<path class="st0" d="M317.2,35.6v2.7c0.8-1.2,1.5-2.1,2.1-2.5s1.2-0.6,1.7-0.6s0.9,0.2,1.1,0.5c0.3,0.3,0.4,0.7,0.4,1.2
		c0,0.6-0.1,1-0.4,1.3s-0.6,0.5-1,0.5c-0.5,0-0.9-0.1-1.2-0.4c-0.3-0.3-0.5-0.5-0.6-0.5c-0.1-0.1-0.2-0.1-0.3-0.1
		c-0.2,0-0.5,0.1-0.7,0.3c-0.4,0.3-0.6,0.7-0.8,1.3c-0.3,0.8-0.4,1.8-0.4,2.8v2.8v0.7c0,0.5,0,0.8,0.1,0.9c0.1,0.2,0.3,0.4,0.5,0.5
		s0.5,0.2,1,0.2v0.5h-6.5v-0.5c0.5,0,0.9-0.2,1.1-0.4s0.3-0.9,0.3-1.9v-6.7c0-0.7,0-1.1-0.1-1.3s-0.2-0.4-0.4-0.5
		c-0.2-0.1-0.5-0.2-0.9-0.2v-0.5L317.2,35.6L317.2,35.6z"/>
	<path class="st0" d="M328.3,35.6v1.6c0.6-0.7,1.2-1.2,1.8-1.5c0.6-0.3,1.2-0.5,1.8-0.5c0.8,0,1.4,0.2,1.9,0.7c0.5,0.4,0.9,1,1,1.6
		c0.1,0.5,0.2,1.4,0.2,2.8V45c0,0.9,0.1,1.5,0.2,1.7c0.2,0.2,0.5,0.4,1.1,0.4v0.5h-6.1v-0.5c0.5-0.1,0.8-0.2,1-0.6
		c0.1-0.2,0.2-0.7,0.2-1.6v-5.4c0-1,0-1.6-0.1-1.9c-0.1-0.3-0.2-0.5-0.4-0.6c-0.2-0.1-0.4-0.2-0.6-0.2c-0.7,0-1.4,0.5-2.1,1.6v6.5
		c0,0.9,0.1,1.5,0.2,1.7c0.2,0.2,0.5,0.4,0.9,0.5v0.5h-6.1v-0.5c0.5-0.1,0.9-0.2,1.1-0.5c0.1-0.2,0.2-0.7,0.2-1.7v-6.8
		c0-0.9-0.1-1.5-0.3-1.7c-0.2-0.2-0.5-0.4-1-0.4v-0.5h5.1V35.6z"/>
	<path class="st0" d="M342.2,35.6v1.6c0.7-0.7,1.3-1.2,1.8-1.5c0.6-0.3,1.2-0.4,1.9-0.4c0.8,0,1.4,0.2,1.9,0.5
		c0.5,0.4,0.9,0.9,1.2,1.7c0.7-0.8,1.3-1.3,2-1.7c0.6-0.3,1.3-0.5,2-0.5c0.8,0,1.5,0.2,2,0.6c0.5,0.4,0.8,0.9,1,1.5s0.3,1.5,0.3,2.8
		v4.9c0,0.9,0.1,1.5,0.2,1.7c0.2,0.2,0.5,0.4,1.1,0.4v0.5h-6.2v-0.5c0.5,0,0.8-0.2,1.1-0.6c0.2-0.2,0.2-0.8,0.2-1.6v-5.2
		c0-1.1,0-1.8-0.1-2c-0.1-0.3-0.2-0.5-0.4-0.6c-0.2-0.1-0.4-0.2-0.6-0.2c-0.4,0-0.7,0.1-1.1,0.4c-0.4,0.3-0.8,0.7-1.1,1.2v6.5
		c0,0.9,0.1,1.4,0.2,1.6c0.2,0.3,0.6,0.5,1.1,0.5v0.5h-6.2v-0.5c0.3,0,0.6-0.1,0.8-0.2c0.2-0.2,0.3-0.3,0.4-0.5s0.1-0.7,0.1-1.4
		v-5.2c0-1.1,0-1.8-0.1-2c-0.1-0.3-0.2-0.5-0.4-0.6c-0.2-0.2-0.4-0.2-0.6-0.2c-0.3,0-0.7,0.1-0.9,0.3c-0.4,0.3-0.8,0.7-1.3,1.4v6.5
		c0,0.9,0.1,1.4,0.2,1.7c0.2,0.3,0.5,0.4,1.1,0.5V48h-6.2v-0.5c0.5-0.1,0.9-0.2,1.1-0.5c0.1-0.2,0.2-0.7,0.2-1.7v-6.8
		c0-0.9-0.1-1.5-0.3-1.7c-0.2-0.2-0.5-0.4-1-0.4v-0.5h4.6V35.6z"/>
	<path class="st0" d="M368.4,41.2h-6.6c0.1,1.6,0.5,2.9,1.3,3.8c0.6,0.7,1.3,1.1,2.1,1.1c0.5,0,1-0.1,1.4-0.4
		c0.4-0.3,0.9-0.8,1.4-1.6l0.4,0.3c-0.7,1.3-1.4,2.3-2.2,2.8c-0.8,0.6-1.7,0.8-2.7,0.8c-1.8,0-3.1-0.7-4.1-2.1
		c-0.7-1.1-1.1-2.5-1.1-4.1c0-2,0.5-3.6,1.6-4.8s2.4-1.8,3.8-1.8c1.2,0,2.3,0.5,3.2,1.5C367.8,37.7,368.3,39.2,368.4,41.2
		L368.4,41.2z M365.2,40.3c0-1.4-0.1-2.3-0.2-2.8s-0.4-0.9-0.7-1.2c-0.2-0.2-0.4-0.2-0.7-0.2c-0.4,0-0.8,0.2-1.1,0.7
		c-0.5,0.8-0.8,1.8-0.8,3.1v0.4H365.2L365.2,40.3z"/>
	<path class="st0" d="M373.8,35.6v1.6c0.6-0.7,1.2-1.2,1.8-1.5c0.6-0.3,1.2-0.5,1.8-0.5c0.8,0,1.4,0.2,1.9,0.7c0.5,0.4,0.9,1,1,1.6
		c0.1,0.5,0.2,1.4,0.2,2.8V45c0,0.9,0.1,1.5,0.2,1.7c0.2,0.2,0.5,0.4,1.1,0.4v0.5h-6.1v-0.5c0.5-0.1,0.8-0.2,1-0.6
		c0.1-0.2,0.2-0.7,0.2-1.6v-5.4c0-1,0-1.6-0.1-1.9c-0.1-0.3-0.2-0.5-0.4-0.6c-0.2-0.1-0.4-0.2-0.6-0.2c-0.7,0-1.4,0.5-2.1,1.6v6.5
		c0,0.9,0.1,1.5,0.2,1.7c0.2,0.2,0.5,0.4,0.9,0.5v0.5h-6.1v-0.5c0.5-0.1,0.9-0.2,1.1-0.5c0.1-0.2,0.2-0.7,0.2-1.7v-6.8
		c0-0.9-0.1-1.5-0.3-1.7c-0.2-0.2-0.5-0.4-1-0.4v-0.5h5.1V35.6z"/>
	<path class="st0" d="M387,31.2v4.4h2.9v1.3H387v7.4c0,0.7,0,1.1,0.1,1.4c0.1,0.2,0.2,0.4,0.3,0.5c0.2,0.1,0.3,0.2,0.5,0.2
		c0.6,0,1.1-0.4,1.6-1.3l0.4,0.3c-0.7,1.6-1.8,2.5-3.4,2.5c-0.8,0-1.4-0.2-1.9-0.6c-0.5-0.4-0.9-0.9-1-1.4c-0.1-0.3-0.1-1.1-0.1-2.4
		V37h-1.6v-0.5c1.1-0.8,2-1.6,2.8-2.4c0.8-0.8,1.4-1.8,2-2.8L387,31.2L387,31.2z"/>
	<path class="st0" d="M46.5,52.8c0.3,0,0.6-0.3,0.6-0.6c0-0.4-0.3-0.6-0.6-0.6s-0.6,0.3-0.6,0.6S46.2,52.8,46.5,52.8L46.5,52.8z"/>
	<path class="st0" d="M75.8,26.1L75.8,26.1H53.1l0,0l0,0v18.4c0,1.8,0.8,3.3,1.8,3.8l8.7,5.2c0.2,0.2,0.5,0.4,0.8,0.4
		s0.5-0.1,0.7-0.3l8.9-5.3c1-0.5,1.8-2,1.8-3.8V26.1L75.8,26.1L75.8,26.1z M60.6,31.4h-2v-4.7h2V31.4L60.6,31.4z M59.1,33.1l0.3-0.3
		l-0.2-0.3h0.4l0.2-0.4l0.2,0.4h0.4l-0.2,0.3l0.3,0.3l-0.4,0.1v0.4l-0.3-0.3l-0.3,0.3v-0.4L59.1,33.1L59.1,33.1z M53.7,38.9v-4.5
		h2.4v4.5H53.7L53.7,38.9z M54.1,32.5h0.4l0.2-0.4l0.2,0.4h0.4l-0.2,0.3l0.3,0.3L55,33.2v0.4l-0.4-0.3l-0.3,0.3v-0.4l-0.4-0.1
		l0.3-0.3L54.1,32.5L54.1,32.5z M56.7,37h0.4l0.2-0.4l0.2,0.4h0.4l-0.1,0.3l0.3,0.3l-0.4,0.1v0.4l-0.3-0.3l-0.3,0.3v-0.4l-0.4-0.1
		l0.3-0.3L56.7,37L56.7,37z M58.3,33.4c0-0.1-0.2-0.2-0.2-0.2c-0.2,0-0.3,0.4-0.5,0.4c-0.1,0-0.2,0-0.2-0.1s0.3-0.2,0.4-0.3
		c-1.5,0-1.5,0.7-1.7,0.7c-0.4,0,0.3-0.7,0.5-0.9c-0.3,0-0.5-0.4-0.8-0.6c0.2-0.2,0.2-0.1,0.4,0c0-0.2,0.1-0.3,0.5-0.3
		c0.7,0,0.5,0.6,0.6,0.6s0-0.6,0.4-0.6c0.7,0,1.5,1.7,0.7,1.7C58.1,33.7,58.3,33.5,58.3,33.4L58.3,33.4z M56.6,28.5l0.3-0.3
		l-0.2-0.3h0.4l0.2-0.4l0.2,0.4h0.4l-0.2,0.3l0.3,0.3l-0.3,0.1V29l-0.3-0.3L57.1,29v-0.4L56.6,28.5L56.6,28.5z M56,26.7v4.7h-2.3
		v-4.7H56L56,26.7z M60.6,51l-5.4-3.3c-0.9-0.6-1.4-1.7-1.5-3v-5.2h6.9V51L60.6,51z M58.6,38.9v-4.5h2v4.5H58.6L58.6,38.9z
		 M67.6,51.4l-2.5,1.5l0,0c-0.2,0.1-0.4,0.2-0.7,0.2c-0.3,0-0.5-0.1-0.7-0.2l-2.5-1.5V39.5h6.4L67.6,51.4L67.6,51.4z M67.6,38.9
		h-6.4V26.7h6.4V38.9L67.6,38.9z M75.1,44.7c-0.1,1.3-0.6,2.4-1.5,3L68.2,51V39.5h6.9V44.7L75.1,44.7z M75.1,38.9h-6.9V26.7h6.9
		V38.9L75.1,38.9z"/>
	<path class="st0" d="M60.2,43.8c0-0.1-0.9,0.3-0.6,0.3c0-0.2,0.5-0.7,0.7-0.9c0-0.3-0.4,0-0.8,0.2c1.3-1.9,0.5-1.1-0.3-1
		c1.2-1.2,0.9-1.2,0-0.8c0.7-0.5,0.8-1.2,0.7-1.3c-0.6,0.8-1.2,0.7-1.2,1.5c0,0.5-0.2,1.4-0.4,1.6c-0.3,0.4-0.1-1.4-1-1.4
		c-0.3,0-1,0-1.2,0.3c0.2,0,0.5,0.5,0.5,0.6c0,0.2,0.2,0.7-0.1,0.7c-0.3,0-0.7-0.6-0.7-0.9c0-0.3,0-0.2,0-0.7c0-0.7-1.2-1.8-1.7-1.8
		c0,0.5,0.7,0.6,0.7,1.3c-0.3,0-0.7-0.5-0.7-0.2s0.4,0.4,0.4,0.7S54,41.9,54,42.2s0.3,0.2,0.3,0.5c-0.2-0.1-0.4,0-0.4,0.1
		s0.1,0.2,0.2,0.3C54,43.2,54,43.3,54,43.7c0,1.5,0.9,2.1,1.6,2.1c0.5,0,0.4-0.3,0.5-0.5c0,0.2,0.3-0.1,0.3,0.3
		c0,0.4-0.5,0.3-0.5,0.6c0,0.5,0.7,0,0.7,0.6c0,0.7-0.1,0.7-0.1,0.9s0.8-0.3,0.7-0.3c0.2,0.1,0.2,0.6,0.5,0.6c0.2,0,0.3-0.6,0.4-0.6
		c-0.1,0,0.7,0.5,0.7,0.3c0-0.7-0.3-0.4-0.3-0.9c0-0.4,0.9-0.3,0.8-0.6c-0.1-0.2-0.2-0.1-0.3-0.4c0,0.1-0.7-1.1,0.2-0.5
		C60.2,45.9,60.3,43.9,60.2,43.8L60.2,43.8z"/>
	<path class="st0" d="M84.5,48.6c0.4,0,0.7-0.3,0.7-0.7s-0.3-0.7-0.7-0.7c-0.4,0-0.7,0.3-0.7,0.7C83.7,48.3,84.1,48.6,84.5,48.6
		L84.5,48.6z"/>
	<path class="st0" d="M81.4,50.4c0.4,0,0.7-0.3,0.7-0.7S81.8,49,81.4,49c-0.4,0-0.7,0.3-0.7,0.7S81,50.4,81.4,50.4L81.4,50.4z"/>
	<path class="st0" d="M45.5,54.5c0.4,0,0.7-0.3,0.7-0.7c0-0.4-0.3-0.7-0.7-0.7s-0.7,0.3-0.7,0.7C44.7,54.2,45.1,54.5,45.5,54.5
		L45.5,54.5z"/>
	<path class="st0" d="M47.8,54.7c0.4,0,0.7-0.3,0.7-0.7c0-0.4-0.3-0.7-0.7-0.7s-0.7,0.3-0.7,0.7C47.1,54.4,47.4,54.7,47.8,54.7
		L47.8,54.7z"/>
	<path class="st0" d="M112.5,23.3c1.1,1.3,1.3,3.4,0.6,5c-0.4,0-0.4-0.6-0.4-0.9c-0.8-1.5-1.4-3.4-0.7-5
		C112.5,22.4,112.3,23.1,112.5,23.3L112.5,23.3z"/>
	<path class="st0" d="M17.6,25.1c-0.2,1-0.2,2.3,0,3.2c-0.2,0.2-0.2-0.2-0.4-0.2c-1.5-1.1-0.8-3.3-1.2-4.9c0.1-0.1,0.3-0.2,0.4-0.1
		C17.1,23.7,17.4,24.3,17.6,25.1L17.6,25.1z"/>
	<path class="st0" d="M116,25.3c0.2,0.4-0.2,0.9-0.5,1.1c-0.4,0.1-0.8-0.1-1-0.4c-0.1-0.4,0.1-0.8,0.5-1
		C115.3,24.8,115.7,24.9,116,25.3L116,25.3z"/>
	<path class="st0" d="M15.2,27c-0.1,0.4-0.2,0.7-0.5,0.9c-0.2,0-0.6,0-0.8-0.2c-0.2-0.2-0.3-0.6-0.2-0.8c0.2-0.3,0.5-0.3,0.8-0.4
		C14.8,26.6,15,26.7,15.2,27L15.2,27z"/>
	<path class="st0" d="M117.5,27.7c0.1,0.2,0.1,0.4,0,0.6c-0.3,0.4-0.7,0.5-1.1,0.4c-0.3-0.2-0.4-0.4-0.4-0.7
		c0.1-0.3,0.4-0.6,0.7-0.7C117,27.3,117.3,27.5,117.5,27.7L117.5,27.7z"/>
	<path class="st0" d="M115.2,27.7c0.3,0.2,0.1,0.6,0,0.8c-0.2,0.2-0.5,0.5-0.8,0.4c-0.2-0.2-0.4-0.2-0.5-0.5c0-0.4,0.2-0.8,0.6-0.9
		C114.8,27.4,115,27.6,115.2,27.7L115.2,27.7z"/>
	<path class="st0" d="M112.3,28.3c0,0.4,0,1-0.5,1.1c-0.5,0.2-0.8-0.2-0.9-0.6c0-0.4,0.2-0.8,0.6-1
		C111.9,27.9,112.1,28.1,112.3,28.3L112.3,28.3z"/>
	<path class="st0" d="M19.5,28.5c0.1,0.4-0.3,0.6-0.5,0.8c-0.3,0.1-0.6-0.2-0.8-0.4c-0.3-0.3,0.1-0.5,0.2-0.8
		C18.7,27.8,19.3,28.1,19.5,28.5L19.5,28.5z"/>
	<path class="st0" d="M17.1,28.6c0,0.3-0.2,0.6-0.4,0.8c-0.3,0.1-0.6-0.1-0.8-0.4c-0.2-0.4,0-0.8,0.4-0.9
		C16.7,28,16.9,28.4,17.1,28.6L17.1,28.6z"/>
	<path class="st0" d="M102.7,28.8c0.4,0.8,0.7,1.8,0.8,2.9c-0.2,0.8,0.1,1.8-0.4,2.3c-0.6-0.2-0.6-0.9-1-1.2c-0.7-1.4-0.1-3,0.2-4.4
		C102.6,28.2,102.6,28.6,102.7,28.8L102.7,28.8z"/>
	<path class="st0" d="M15.2,29.3c0.1,0.5-0.2,0.7-0.5,1c-0.5,0.1-0.8-0.2-1-0.6c0-0.4,0.2-0.8,0.5-1C14.6,28.7,15,28.9,15.2,29.3
		L15.2,29.3z"/>
	<path class="st0" d="M109,30.4c0.5,1.2,0.6,2.6,0.2,3.8l-0.2,0.2c-0.6-1.1-1.3-2.1-1.6-3.2c0-0.8,0.2-1.6,0.5-2.3
		c0.3-0.2,0.4,0,0.6,0.3C108.4,29.7,108.6,30.2,109,30.4L109,30.4z"/>
	<path class="st0" d="M114,29.7c0,0.4-0.2,0.8-0.6,1c-0.4,0.1-0.8,0-0.9-0.5c-0.1-0.4,0.1-0.8,0.4-1C113.4,29,113.8,29.4,114,29.7
		L114,29.7z"/>
	<path class="st0" d="M17.1,31c0,0.3-0.3,0.7-0.6,0.8c-0.3,0.2-0.6-0.2-0.8-0.3c-0.1-0.3-0.2-0.6,0-0.9c0.1-0.2,0.4-0.2,0.6-0.3
		C16.7,30.4,17.1,30.6,17.1,31L17.1,31z"/>
	<path class="st0" d="M18.9,30.8c0.2,0.4-0.3,0.6-0.4,0.8c-0.5,0.2-0.7-0.2-0.9-0.5c-0.1-0.4,0.2-0.6,0.4-0.9
		C18.5,30.1,18.7,30.4,18.9,30.8L18.9,30.8z"/>
	<path class="st0" d="M115.1,30.6c0,0.5-0.8,1-0.9,1.6c-0.4,1.1-1.4,1.9-2.5,2.2c-0.2,0.2-0.6,0.5-0.9,0.5c-0.1-0.8,0.6-1.5,1.1-2.2
		C112.7,31.6,113.9,31,115.1,30.6L115.1,30.6z"/>
	<path class="st0" d="M16.4,32.3c0.6,0.7,0.9,1.3,1.6,1.9c0,0.2-0.1,0.4-0.3,0.4c-1.9-0.1-3.3-2.1-4.2-3.5c0.1-0.4,0.6-0.1,0.9-0.1
		C15.1,31.5,15.8,31.6,16.4,32.3L16.4,32.3z"/>
	<path class="st0" d="M115.7,32.9c-0.1,1.7-0.9,3.5-2.5,4.3c-0.4,0.2-0.9,0.6-1.3,0.3c0.8-1.7,2.1-3.1,3.5-4.6H115.7L115.7,32.9z"/>
	<path class="st0" d="M108.1,34c0.1,0.6-0.2,1-0.7,1.2c-0.4,0-0.7-0.3-0.9-0.6c0-0.4,0.2-0.8,0.6-0.9c0.1-0.1,0.3-0.1,0.5-0.1
		C107.7,33.6,107.9,33.8,108.1,34L108.1,34z"/>
	<path class="st0" d="M14.2,34.4c0.8,0.5,1.4,1.2,2.1,1.9c-0.5,0.4-1.1,0-1.7,0c-1.3-0.5-2.3-1.6-3.6-2c0-0.4,0.6-0.3,0.8-0.4
		C12.6,33.8,13.3,34.2,14.2,34.4L14.2,34.4z"/>
	<path class="st0" d="M56.7,22.6c-2.2-0.9-3.7,1.4-6,1.2c-0.3,0.2-0.2,0.4-0.4,0.6c-0.1,0.1-0.3,0-0.4,0c-0.1-1-0.4-1.8-0.6-2.8
		c-0.2-0.4-0.1-1-0.3-1.4c-1.3-3.5,3.1-0.8,4-2.9c0.8-1.8-1.5-2-2.1-3.2v-0.5c-0.6-0.6-1.3-0.8-1.7-1.7c0.3-1,0.4-2.1,0.1-3.1
		c0-0.2-0.2-0.6-0.6-0.4c-0.8,1-1.3,1.9-2,2.9c-0.8-0.6-1.5-1.3-2.3-1.8c-0.6-0.1-1.1-0.7-1.8-0.4c-0.1,0.2,0,0.4,0.1,0.6
		c0,1.6,0.8,2.8,1.9,3.9l0.1,0.6c-0.7,1.6-0.5,3.5-0.7,5.3c-1.8,4.6-4.7,8.9-8.6,12.1c-2.3,2.6-5,5-5.3,8.5
		c-0.1,0.6,0.1,1.2-0.4,1.6c-1.3-0.5-2.6-1.1-3.7-2c-1.8-1.3-4.4-1.1-5.6-3.4c-0.5-0.9,0.1-1.8,0.6-2.5c1.3-1.3,1.2-3.6,0.4-5.1
		c-0.2,0-0.2,0.2-0.3,0.2c-0.1,2.4-2,4-1.3,6.6c0.2,0.8,0.6,1.2,0.8,2c-0.3-0.1-0.7-0.1-0.9-0.2c-0.9-0.1-1.7-0.5-2.7-0.4
		c-1.8,0.8-4.3-0.2-5.8,1.5c-0.2,0-0.6,0.1-0.5,0.4c0.9,0,1.7,0.2,2.6,0.2c1.4,0.2,2.3-0.9,3.3-1.4h0.2c0.4-0.4,1.1-0.2,1.6-0.2
		c2.5,0.3,4.4,1.5,6.5,2.7v0.2c-0.8,0.4-1.7,0.6-2.5,1c-0.9,0.7-1.9,1.6-2.2,2.7c-0.6,1,0.2,1.9,0.6,2.7c0,0.4,0.1,0.9,0.4,1
		c1.3-1.4,0.1-3,0.3-4.6c0.3-1.2,1.4-1.8,2.6-2.1c2.3-1,3.9,0.9,5.7,1.9c0,1.8,0.2,3.6-0.2,5.4c-0.6,0.2-1.3,0.3-1.9,0.3
		c-3.1,0.2-5.6,2-8.4,2.9c-1.3,0.4-2.8,0.4-4,0.9c1,0.3,2-0.1,3.1-0.1c3.9-0.6,6.9-3.6,11.1-3l0.1,0.1c-0.5,1-1.1,1.8-1.9,2.6
		c-0.1-0.4-0.2-0.8-0.6-1c-0.3-0.2-0.7,0-0.9,0.3c-0.1,0.2-0.1,0.4,0,0.6c0.2,0.4,0.5,0.4,0.9,0.6c-0.1,0.4-0.5,0.5-0.8,0.8
		c-1.1,1.9-3.4,1.1-4.7,2.4c-0.2,0.3-0.9,0.4-0.6,0.9c1.5,0.2,3-0.2,4.1-1c1.5-1.6,3-3.2,4.5-4.8c0.2,1.3-0.1,2.6-0.9,3.6
		c-0.4-0.2-0.6-0.5-1.1-0.6c-0.4,0.1-0.7,0.5-0.7,0.8c0.2,0.3,0.3,0.6,0.6,0.8c-1.3,1-3.1,1.3-4.6,1.5c-1.5,0.2-6.3,0.6-9.3,0.7
		c-3.6,0-7.6,0.3-8,0.5s-0.2,0.6,0,0.7c0.4,0.3,4.6,0.5,6.4,0.5s15.6,0,15.6,0c1.2,0,2.3-0.1,3.2-0.6c2-1.2,3.1-3.2,4.2-5.3
		c0.4-0.7,0.7-1.6,0.8-2.4c0.4-1.4,1.6-2.3,3-2.4c0.2,2.1-0.2,4.2-0.7,6.1c-0.2,1.3-1.1,2.5-0.6,3.9c0.1,0.6,0.8,0.6,1.3,0.7
		c4.8-0.1,9.6-0.3,14.7,0.1c0.9,0.2,1.7,0.4,2.7,0.4c0.1-0.1,0.4-0.2,0.2-0.4c-0.1-0.4-0.4-1-1-1.1c-0.1-0.2-0.4-0.2-0.6-0.3
		c-2.5-1.4-5.6-0.7-8.6-0.6c-1.5,0.2-3.1,0.4-4.4-0.4c-0.6-0.7-0.2-3-0.2-3c0-0.9,2.2-7.2,2.5-7.7c0.1-0.6,0.3-1.2,0.2-1.8
		c0.3-0.8,0.2-1.8,0.2-2.7c0.2-1.3,0.8-2.5,1.2-3.7c0.2-0.6,0.4-1.2,0.7-1.8c0.2-0.8,0.3-1.5,0.8-2.1c1.3,0.8,2.6,0.8,3.2,2.3
		l0.5,3.3c0,0.2,0.2,0.6,0.4,0.4c1-0.7,0.7-2.2,0.7-3.2c0.2-1.2-0.6-1.8-1-2.9c-0.3-0.2-0.7-1.2-0.7-1.2c-0.2-0.9-2.1-1.5-1.6-2.6
		c0.2-0.9,0.5-1.8,1.3-2.3c0.1,0.1,0.2,0.2,0.2,0.3l0.5-0.3v-3.3c1.3,0,3.2,0.2,4.5,0.2c0.4,0.1,0.6,0.4,1,0.4l0.3-0.4l3.2-0.6
		C58.8,24.1,58,22.6,56.7,22.6L56.7,22.6z"/>
	<path class="st0" d="M60.1,24c0.1,0,0.2,0,0.3-0.1L60.1,24L60.1,24z"/>
	<path class="st0" d="M25.6,35.1c0,0.5-0.2,0.8-0.6,0.9c-0.3-0.1-0.6-0.2-0.8-0.5c-0.2-0.4,0.2-0.8,0.6-0.9
		C25.1,34.7,25.5,34.8,25.6,35.1L25.6,35.1z"/>
	<path class="st0" d="M23,35.1c0.2,0.2,0.3,0.6,0.2,0.9c-0.3,0.2-0.7,0.4-1,0.1c-0.2-0.2-0.5-0.5-0.3-0.8C22.2,35,22.7,34.8,23,35.1
		L23,35.1z"/>
	<path class="st0" d="M78.2,35.6C78.2,35.6,78.3,35.6,78.2,35.6"/>
	<path class="st0" d="M108.5,36.2c0.2,0.4-0.2,0.8-0.5,0.9c-0.4-0.1-0.9-0.2-0.9-0.7c0-0.3,0.3-0.5,0.6-0.6
		C108,35.7,108.3,36,108.5,36.2L108.5,36.2z"/>
	<path class="st0" d="M110.6,36.2c0.1,0.2,0.4,0.5,0.1,0.7c-0.2,0.1-0.3,0.2-0.4,0.3c-0.4,0.1-0.8-0.1-1-0.5
		c-0.1-0.4,0.3-0.6,0.6-0.8C110.2,35.8,110.4,36,110.6,36.2L110.6,36.2z"/>
	<path class="st0" d="M13.1,36.6c-0.2,0.5-0.6,0.7-1.1,0.5c-0.1-0.1-0.2-0.3-0.3-0.5c0-0.3,0.1-0.6,0.4-0.7
		C12.6,36,12.9,36.2,13.1,36.6L13.1,36.6z"/>
	<path class="st0" d="M26.4,37.3c0,0.3-0.4,0.6-0.7,0.8c-0.4,0-0.7-0.3-0.9-0.6c0-0.3,0.2-0.7,0.5-0.8
		C25.8,36.6,26.3,36.9,26.4,37.3L26.4,37.3z"/>
	<path class="st0" d="M24.1,37c0.1,0.1,0.2,0.4,0.1,0.6c-0.2,0.2-0.6,0.6-1,0.3c-0.2-0.2-0.5-0.4-0.4-0.8c0.2-0.2,0.4-0.4,0.6-0.5
		C23.7,36.7,23.9,36.9,24.1,37L24.1,37z"/>
	<path class="st0" d="M116.6,37.5c0,0.3-0.3,0.6-0.5,0.8c-0.3,0.1-0.7,0-0.9-0.2c-0.2-0.1-0.2-0.4-0.2-0.6c0.2-0.3,0.5-0.4,0.8-0.5
		C116.2,37,116.4,37.3,116.6,37.5L116.6,37.5z"/>
	<path class="st0" d="M119.2,37.9c-0.1,0.4-0.4,0.7-0.8,0.7c-0.2,0-0.7-0.1-0.6-0.5c0-0.3,0.2-0.6,0.4-0.6
		C118.6,37.3,119,37.5,119.2,37.9L119.2,37.9z"/>
	<path class="st0" d="M17.6,38.4c0.1,0.5-0.1,0.8-0.5,1c-0.3,0.2-0.6,0-0.8-0.2s-0.4-0.5-0.2-0.8c0.1-0.4,0.4-0.3,0.7-0.4
		C17.2,38,17.4,38.2,17.6,38.4L17.6,38.4z"/>
	<path class="st0" d="M19.5,38.8c0.1,0.3-0.2,0.4-0.3,0.7c-0.2,0.1-0.5,0.2-0.7,0.1c-0.3-0.2-0.6-0.6-0.3-1
		C18.5,38,19.3,38.3,19.5,38.8L19.5,38.8z"/>
	<path class="st0" d="M114.3,38.6c0,0.4-0.3,0.7-0.6,0.9c-0.4,0.1-0.7-0.2-0.8-0.5c0-0.3,0.2-0.6,0.4-0.8
		C113.7,38.2,114.1,38.3,114.3,38.6L114.3,38.6z"/>
	<path class="st0" d="M117.5,39.2c-0.1,0.4,0,0.8-0.4,1c-0.3,0.1-0.7,0-1-0.2c-0.2-0.2-0.3-0.6-0.2-0.8c0.2-0.3,0.6-0.6,1-0.5
		C117.2,38.9,117.3,39.1,117.5,39.2L117.5,39.2z"/>
	<path class="st0" d="M16.1,40.1c0.2,0.3-0.2,0.4-0.3,0.6c-0.3,0.2-0.6,0-0.8-0.1c-0.3-0.2-0.2-0.6-0.1-0.8
		C15.2,39.1,15.9,39.6,16.1,40.1L16.1,40.1z"/>
	<path class="st0" d="M115,40.8c0.2,0,0.1,0.3,0,0.4c-1,0.5-2.4,0.6-3.2-0.2c-0.5-0.4-1.1-0.6-1.6-0.9c0.2-0.5,0.9-0.5,1.4-0.6
		C112.9,39.7,113.8,40.8,115,40.8L115,40.8z"/>
	<path class="st0" d="M18,40.5c0.1,0.3-0.2,0.4-0.2,0.7c-0.2,0.2-0.5,0.2-0.7,0.1c-0.4-0.2-0.5-0.7-0.3-1C17.2,39.8,17.7,40,18,40.5
		L18,40.5z"/>
	<path class="st0" d="M21.5,40.7c0.2,0.4-0.1,0.7-0.4,0.9c-0.3,0.2-0.5-0.1-0.8-0.1c-0.2-0.3-0.6-0.6-0.2-0.9
		C20.5,40,21.2,40.3,21.5,40.7L21.5,40.7z"/>
	<path class="st0" d="M67.3,42.4c-0.1,0.8-1.4-0.1-1.2,0.9c0.2,0.8,0.3,1.7,0.8,2.2c0.4,0.5,0.2,1.4,0.2,2c-0.3,0.6-0.9,1-1.5,1.3
		c-1.1-0.1-2.8,0.6-3.3-0.8c-0.2-0.6-0.6-1.2-0.6-1.9c0.1-0.1,0.3-0.1,0.4-0.2c0-0.3-0.3-0.4-0.3-0.7c1.3-0.2-0.5-1.4,0.6-1.4
		c0.9,0.9,2.4,0.6,3.2,1.7c0.2,0.2,0.3,0.4,0.6,0.5c-0.2-0.9-0.6-1.9-0.8-2.9c-0.1-0.5,0.1-1,0.5-1.3C66.4,41.2,67,42,67.3,42.4
		L67.3,42.4z"/>
	<path class="st0" d="M25,42.1c0.1,0.4-0.2,0.6-0.4,0.8c-0.4,0.2-0.6-0.2-0.7-0.4c-0.1-0.4,0.2-0.6,0.4-0.8
		C24.5,41.7,24.8,41.9,25,42.1L25,42.1z"/>
	<path class="st0" d="M49.4,42.5c0.5,1.6,0.3,3.2-0.5,4.5c0,0.3,0.1,0.8-0.4,0.8c-1.1-1.5-0.3-3.6,0.2-5.1
		C48.8,42.3,49.3,42.1,49.4,42.5L49.4,42.5z"/>
	<path class="st0" d="M83.4,43.3c0.6,1.1,0.6,2.6,0.1,3.7l-0.3,0.3c-0.4-0.9-0.8-1.8-0.9-2.8c0.2-0.7,0.4-1.4,0.5-2.1
		C83.3,42.3,83.2,43,83.4,43.3L83.4,43.3z"/>
	<path class="st0" d="M28.1,43.7c-0.2,0.5-0.9,0.6-1.3,0.9c-1,0.7-2.3,0.9-3.5,0.7c1-1.4,2.6-2.3,4.5-1.9
		C27.8,43.6,28,43.5,28.1,43.7L28.1,43.7z"/>
	<path class="st0" d="M11.8,45.2c1.5,1,1.9,2.5,2.7,3.9c0.1,0.2,0.5,0.2,0.4,0.5c-0.3,0.2-0.6-0.2-1.1-0.2c-1.5-0.7-2.5-2.4-2.4-4.1
		C11.4,45.2,11.6,45.2,11.8,45.2L11.8,45.2z"/>
	<path class="st0" d="M81.8,46.4c0,0.4,0,0.8-0.4,0.9c-0.4,0.1-0.8-0.1-0.9-0.5c-0.1-0.3,0.1-0.4,0.2-0.6
		C81.1,45.9,81.6,46.1,81.8,46.4L81.8,46.4z"/>
	<path class="st0" d="M98.6,48.5c0-0.8,0.2-1.5,0.3-2.2c0.1-0.2,0.2-0.5,0.2-0.8c1-1.3,2.9-0.9,4.4-0.8c0.6,0.3,1.3,0.3,2,0.4
		c0.3-0.2,0.7-0.2,1-0.2c1.3-0.7,0.4-2.2,0.5-3.3l-0.5-1.2c-0.1-0.2-0.2-0.5-0.3-0.8c-0.2-0.3-0.4-0.8-0.6-1.1
		c-0.7-1.8-2-2.8-3.1-4.2c-2-2.6-5.2-4.1-8.4-5.2C91,28,87.8,29.4,85,30.4c-0.9-0.2-1.3-0.9-1.5-1.7c-0.2-1.5,0.2-3,0.8-4.2
		c0.1-1,0.8-1.8,1.1-2.7c0.7-2.2,1.5-4.4,1.6-6.9c0.1-1.5-1-2.5-2.1-3.2c-0.8-0.2-1.6-0.2-2.2,0.4c-0.5,1.1-1.6,1.8-2.6,2.3
		c-0.1,0.7,0.8,0.2,1,0.5c0.9,0.2,1.9-0.1,2.6,0.4c0.1,1.6-0.8,2.9-1.7,4.1c-1.3,2-2.8,4-3.6,6.2l-0.2-0.2l0.2,9.8
		c1.3,2.1,2.8,4.5,5.2,5.3c1.3,1,2.9,2.3,4.6,1.4c0.9-0.3,1,1,1.4,1.5c0.5,1.5-0.6,2.5-0.7,3.9l-1,2.2c-1.2,2.3-2.3,4.8-4.1,6.8
		c-0.6,0-1,0.6-1.5,0.7c-0.3,0.4-1,0.1-1.3,0.3c-1.2,0.5-3,0.2-3.8,1.4c0.1,0.1,0.2,0.2,0.3,0.2c2.4,0,5.1,0.2,7.7,0.1
		c0.3-0.1,0.6-0.4,0.6-0.8c-0.4-0.7,0.1-1.3,0.4-1.8c0.2-1,0.8-1.6,1.1-2.5c0.8-1.6,1.8-3.2,2.7-4.9l1.2-2c0.3-0.7,0.8-1.5,1.2-2.2
		c0.3-0.3,0.5-0.7,0.7-1.1c0-0.4-0.2-0.6-0.4-0.8c0.3-0.3,0.7-0.2,1.1-0.3c1,0.6,2,1.6,2.2,2.6l0.4,1l0.2,0.5L96.5,48l0.2,1.2
		c0.2,1.9-0.2,3.9-0.4,5.8c-0.7,2.3-3.3,2.1-5.2,2.6c-0.5,0.3-1.4,0.2-1.4,1c2.3,0.5,5,0.2,7.5,0.2c0.4-0.2,0.5-0.5,0.7-0.9
		c0.1-0.5,0.6-1,0.4-1.5c-0.4-0.6,0-1.4-0.2-2.2c0.1-0.2,0.1-0.5,0-0.8c0.3-1.2,0.2-2.6,0.5-3.7L98.6,48.5L98.6,48.5z"/>
	<path class="st0" d="M118.1,47c-1.3,1.8-2.6,3.8-4.8,4.5c-0.2,0-0.3,0.1-0.4-0.1c1.3-1.4,2.1-3.7,4.2-4.2
		C117.3,47,117.8,46.8,118.1,47L118.1,47z"/>
	<path class="st0" d="M9.8,48.9c-0.2,0.2,0,0.5-0.4,0.6c-0.3,0.2-0.7,0-0.8-0.4c-0.2-0.4,0.2-0.8,0.5-0.9
		C9.4,48.4,9.7,48.5,9.8,48.9L9.8,48.9z"/>
	<path class="st0" d="M21.2,49.5c0.1,0.4-0.3,0.4-0.5,0.4c-1.7,0.6-3.4,0-4.6-1.2c0-0.2,0-0.3,0.2-0.4C18,48.8,19.9,48.5,21.2,49.5
		L21.2,49.5z"/>
	<path class="st0" d="M12,49c0.1,0.2,0.1,0.4,0.1,0.6c-0.2,0.4-0.6,0.4-1,0.4c-0.2-0.1-0.4-0.3-0.5-0.5c0-0.4,0.4-0.6,0.7-0.8
		C11.6,48.7,11.8,48.8,12,49L12,49z"/>
	<path class="st0" d="M49.2,49.2c0.1,0.4-0.2,0.6-0.5,0.8c-0.4,0.1-0.7-0.1-0.8-0.3c-0.1-0.3,0-0.7,0.3-0.8
		C48.5,48.8,49,48.8,49.2,49.2L49.2,49.2z"/>
	<path class="st0" d="M119.6,49.3c0.1,0.4-0.2,0.6-0.5,0.8c-0.2,0.1-0.5,0-0.8-0.1c0-0.2-0.3-0.4-0.2-0.6c0.2-0.4,0.5-0.5,0.9-0.5
		C119.2,49.1,119.4,49.1,119.6,49.3L119.6,49.3z"/>
	<path class="st0" d="M122.2,49.2c0.2,0.4,0,0.6-0.2,0.9c-0.2,0.3-0.5,0.4-0.7,0.2s-0.6-0.4-0.6-0.7s0.4-0.6,0.6-0.7
		C121.7,48.8,121.9,49.2,122.2,49.2L122.2,49.2z"/>
	<path class="st0" d="M8.1,50.3c0,0.3-0.2,0.4-0.3,0.7c-0.2,0.1-0.4,0.2-0.6,0.2c-0.3-0.1-0.5-0.4-0.6-0.6c0.1-0.4,0.3-0.7,0.7-0.8
		C7.7,49.8,8,50,8.1,50.3L8.1,50.3z"/>
	<path class="st0" d="M91.7,50.3c0.1,0.2,0,0.4,0,0.5c-0.2,0.3-0.6,0.6-1,0.4c-0.2-0.2-0.5-0.5-0.4-0.8C90.7,50,91.4,49.8,91.7,50.3
		L91.7,50.3z"/>
	<path class="st0" d="M14.5,50.9c-0.1,0.3-0.2,0.6-0.6,0.6s-0.5-0.3-0.7-0.4c0-0.4,0-0.7,0.3-0.9C14.1,50,14.5,50.4,14.5,50.9
		L14.5,50.9z"/>
	<path class="st0" d="M10.7,51c0.1,0.4-0.2,0.7-0.4,0.9c-0.5,0.2-0.9-0.2-1.1-0.6c0-0.4,0.3-0.8,0.7-0.9
		C10.3,50.4,10.5,50.8,10.7,51L10.7,51z"/>
	<path class="st0" d="M94.3,50.9c0.1,0.4,0,0.8-0.4,1c-0.5,0.2-0.9-0.2-1.1-0.6c0.2-0.3,0.2-0.8,0.7-0.8
		C93.9,50.5,94.1,50.7,94.3,50.9L94.3,50.9z"/>
	<path class="st0" d="M12.6,51.1c0.1,0.3-0.1,0.4-0.2,0.6c-0.2,0-0.3,0.2-0.6,0.2c-0.2-0.2-0.5-0.3-0.5-0.6c0-0.4,0.2-0.6,0.5-0.8
		C12.2,50.5,12.5,50.8,12.6,51.1L12.6,51.1z"/>
	<path class="st0" d="M117.4,51.4c-0.1,0.3-0.4,0.5-0.7,0.6s-0.5-0.2-0.8-0.3c-0.2-0.2-0.1-0.5,0-0.7
		C116.4,50.3,117.4,50.7,117.4,51.4L117.4,51.4z"/>
	<path class="st0" d="M120.4,51.6c-0.1,0.4-0.6,0.6-1,0.7c-0.4-0.2-0.8-0.4-0.5-0.9c0.2-0.2,0.2-0.3,0.5-0.4
		C120,50.8,120.3,51.2,120.4,51.6L120.4,51.6z"/>
	<path class="st0" d="M101.6,51.9c0.2,0.5-0.3,0.7-0.6,0.9c-0.3,0-0.5-0.2-0.8-0.3c-0.1-0.4,0.1-0.8,0.6-1
		C101.2,51.4,101.4,51.6,101.6,51.9L101.6,51.9z"/>
	<path class="st0" d="M90.7,52.3c0.2,0.1,0.1,0.4,0.1,0.5c-0.2,0.2-0.6,0.6-0.9,0.3c-0.3-0.2-0.5-0.4-0.4-0.8
		C89.7,51.9,90.5,51.9,90.7,52.3L90.7,52.3z"/>
	<path class="st0" d="M92.9,52.6c0,0.3,0,0.5-0.3,0.6c-0.3,0.3-0.6,0-0.9-0.1c-0.1-0.2-0.2-0.4,0-0.6c0.1-0.2,0.3-0.3,0.5-0.3
		C92.5,52.3,92.8,52.3,92.9,52.6L92.9,52.6z"/>
	<path class="st0" d="M25.6,52.7c0.2,0.2,0,0.5-0.1,0.8c-0.2,0.2-0.6,0.4-1,0.2c-0.4-0.2-0.4-0.7-0.3-1c0.2-0.1,0.2-0.4,0.6-0.4
		S25.4,52.5,25.6,52.7L25.6,52.7z"/>
	<path class="st0" d="M105.8,52.8c0.1,0.4-0.3,0.6-0.6,0.6c-0.5,0.2-0.7-0.2-0.9-0.5c0-0.2,0.2-0.4,0.3-0.6
		C105.2,52.1,105.6,52.5,105.8,52.8L105.8,52.8z"/>
	<path class="st0" d="M103.7,52.8c0.2,0.4-0.3,0.6-0.4,0.8c-0.3,0.1-0.6,0.1-0.9-0.2c-0.2-0.1-0.2-0.4-0.2-0.6
		c0.2-0.2,0.4-0.4,0.6-0.5C103.2,52.3,103.5,52.5,103.7,52.8L103.7,52.8z"/>
	<path class="st0" d="M121.6,53.3c0.1,0.6-0.6,0.3-0.9,0.4c-1.7,1-3.8,0.2-5.4-0.4c0.1-0.5,0.7-0.3,1-0.5c1.7-1.1,3.5,0.2,5.2,0.3
		L121.6,53.3L121.6,53.3z"/>
	<path class="st0" d="M13,52.8l-0.2,0.3C11.3,54,9.4,54.6,7.7,54l-0.2-0.2c1.5-1.1,3.4-1.4,5.3-1.1L13,52.8L13,52.8z"/>
	<path class="st0" d="M109.9,53.1c0,0.3-0.2,0.6-0.4,0.8c-0.4,0.1-0.9,0-1-0.4c-0.1-0.3,0.2-0.6,0.5-0.8
		C109.3,52.7,109.7,52.7,109.9,53.1L109.9,53.1z"/>
	<path class="st0" d="M20.1,53.3c-0.2,0.3-0.1,0.6-0.5,0.8c-0.4,0.2-0.9-0.2-1-0.5c-0.1-0.4,0.2-0.6,0.4-0.8
		C19.5,52.5,19.9,52.9,20.1,53.3L20.1,53.3z"/>
	<path class="st0" d="M17.3,53.5c0.1,0.3-0.1,0.4-0.2,0.6c-0.2,0.2-0.6,0.2-0.8,0.1c-0.3-0.2-0.6-0.5-0.4-1c0.2-0.2,0.4-0.3,0.6-0.4
		C16.9,52.9,17.2,53.1,17.3,53.5L17.3,53.5z"/>
	<path class="st0" d="M112.7,54.4c0,0.4-0.3,0.6-0.6,0.7c-0.3,0-0.6-0.2-0.8-0.4c-0.1-0.2-0.1-0.6,0.2-0.8c0.1-0.1,0.4-0.1,0.5-0.2
		C112.3,53.8,112.6,54.1,112.7,54.4L112.7,54.4z"/>
	<path class="st0" d="M14.4,53.9c0.1,0.3-0.2,0.4-0.2,0.7c-0.1,0.7-0.6,1.1-0.9,1.7c-0.8,0.9-1.8,0.9-2.9,1.2l-0.2-0.3
		c1.2-1.5,2.4-2.6,4-3.4L14.4,53.9L14.4,53.9z"/>
	<path class="st0" d="M110.7,54.8c0.1,0.5-0.3,0.6-0.6,0.8c-0.4,0-0.6-0.2-0.8-0.5c-0.1-0.4,0.3-0.6,0.5-0.8
		C110.2,54.2,110.6,54.5,110.7,54.8L110.7,54.8z"/>
	<path class="st0" d="M18.9,54.8c0,0.1,0,0.2,0.1,0.2c0,0.4-0.4,0.6-0.6,0.8c-0.4,0-0.6-0.1-0.9-0.4c-0.2-0.4,0-0.8,0.4-0.9
		C18.3,54.4,18.8,54.5,18.9,54.8L18.9,54.8z"/>
	<path class="st0" d="M118,56c0.4,0,0.5-0.5,0.9-0.6s0.8,0.2,1,0.4c0.2,0.5-0.2,0.7-0.5,0.9c-0.3,0.2-0.9-0.2-0.8,0.3
		c0.3,0.2,0.5,0.5,0.6,0.8c-0.1,0.2-0.4,0.1-0.5,0c-1.2-0.5-2.4-1.3-2.9-2.5c-0.2-0.4-0.9-0.6-0.5-1C116.4,54.4,117.3,55.3,118,56
		L118,56z"/>
	<path class="st0" d="M121.8,54.8c0.2,0.2,0.1,0.6,0,0.8c-0.2,0.4-0.8,0.2-1.2,0.2c-0.2-0.2-0.4-0.4-0.3-0.7
		c0.2-0.2,0.3-0.4,0.6-0.5C121.2,54.4,121.5,54.6,121.8,54.8L121.8,54.8z"/>
	<path class="st0" d="M107.4,56.9c0.4,0.4,0.7,1.1,0.9,1.6c-0.1,0.1-0.3,0.1-0.4,0.1c-1.3-0.8-3.1-1.6-3.6-3.2
		c-0.1-0.2-0.4-0.4-0.4-0.6c1-0.2,2,0.6,2.7,1.1C106.9,56.3,107.2,56.5,107.4,56.9L107.4,56.9z"/>
	<path class="st0" d="M16.7,55.4c0.2,0.4-0.2,0.6-0.4,0.8c-0.4,0.1-0.7-0.1-0.9-0.3c-0.3-0.4,0.2-0.8,0.6-1
		C16.3,54.9,16.5,55.2,16.7,55.4L16.7,55.4z"/>
	<path class="st0" d="M112.3,56.3c0,0.2-0.3,0.4-0.4,0.6c-0.3,0-0.6,0.2-0.9-0.1c-0.1-0.2-0.3-0.5,0-0.7
		C111.4,55.5,112.1,55.9,112.3,56.3L112.3,56.3z"/>
	<path class="st0" d="M122.2,56.9c0.1,0.5-0.2,0.8-0.6,1c-0.4,0.1-0.7-0.2-1-0.4c-0.2-0.2,0-0.5,0-0.8c0.3-0.2,0.6-0.4,1-0.3
		C121.9,56.6,122.1,56.7,122.2,56.9L122.2,56.9z"/>
	<path class="st0" d="M94.8,62.4c0,0.5-0.9,0.4-1.2,0.7c-1.2,0.6-2.7,0.6-4.2,0.6v-0.2C90.8,62.3,92.9,61.8,94.8,62.4L94.8,62.4z"/>
	<path class="st0" d="M36.9,64.1c0,0.4-0.2,0.6-0.6,0.7c-0.3,0-0.6-0.2-0.7-0.4c-0.2-0.5,0.2-0.7,0.5-0.9
		C36.5,63.6,36.8,63.8,36.9,64.1L36.9,64.1z"/>
	<path class="st0" d="M94.1,64.6c-0.1,0.4-0.2,0.8-0.6,0.9s-0.6-0.1-0.9-0.3c-0.2-0.2-0.1-0.4-0.1-0.6
		C92.8,63.8,93.8,63.8,94.1,64.6L94.1,64.6z"/>
	<path class="st0" d="M102,64.7c-1,0.6-2.1,1.4-3.4,1.4h-2.1l-0.2-0.2c1.3-1.6,3.7-1.6,5.8-1.4v0.2H102z"/>
	<path class="st0" d="M26,65.7c0,0.4-0.2,0.6-0.5,0.8c-0.4,0.1-0.7-0.1-0.8-0.4c-0.2-0.4,0-0.7,0.3-0.9C25.4,64.9,25.9,65.4,26,65.7
		L26,65.7z"/>
	<path class="st0" d="M28,66.1c0.1,0.2-0.1,0.3-0.2,0.5c-0.2,0.1-0.6,0.2-0.8,0c-0.3-0.2-0.4-0.4-0.2-0.7c0.1-0.2,0.4-0.2,0.5-0.4
		C27.6,65.7,27.9,65.8,28,66.1L28,66.1z"/>
	<path class="st0" d="M12.8,70.1c-0.4,0.5-1-0.1-1.5-0.4c-1.4-0.8-1.3-2.4-2.7-3.3c0.2-0.5,0.5,0,0.8,0c0.2,0.2,0.6,0.3,0.8,0.4
		C11.6,67.6,11.9,68.9,12.8,70.1L12.8,70.1z"/>
	<path class="st0" d="M128.4,54.6c-0.6-1.2-1.7-1.6-3-1.6c-1,0.1-1.8,0.8-2.2,1.6c-0.2,0.9,0.1,1.7,0.8,2.2c0.3,0.1,0.6,0.1,0.8-0.2
		c0.2-0.5-0.4-0.5-0.4-0.9c-0.2-0.6,0-1,0.4-1.4s1.1-0.2,1.5-0.2c0.5,0.3,1,0.6,1.2,1.2c0.2,0.7,0.2,1.4,0,2.1c-0.4,1-1.4,1.8-2.5,2
		c-3.3,0.5-39.4,0.3-39.4,0.3c-4.2,0.4-9.1-0.8-12.7,1.4c-1.7,0.8-2.5,2.6-2.9,4.3c-1.1,1-2.2,2.1-3.1,3.2l-0.1-0.1
		c0.2-1,0.6-1.8,0.8-2.8c0.6-0.8,0.6-1.9,1-2.8c1.5-2.4,2.9-4.9,5.3-6.6c1-1.3,2.7-1.1,4.2-1.1c1.6,0.8,3.5,1,5.5,0.8
		c0.1-0.1,0.1-0.2,0.1-0.3c-0.6-0.5-1.5-0.7-2.1-1.2c-1.6-0.8-3.1,0.2-4.8,0.1c-0.1-0.1-0.2-0.1-0.1-0.2c1.5-1.1,3.2-1.9,4.9-2.6
		c1.4-0.8,2.9-1.2,4.3-1.7c0.6,0,1.2-0.5,1.7-0.2l2.1-0.6c0.1,0,0.2,0.2,0.3,0.1c1.8-0.6,4,0,6.1-0.1l0.3,0.2l1.9,0.5
		c0.7,0.1,1,0.9,1.8,1c0.4-0.6-0.4-0.8-0.6-1.2c0.9-0.2,1.9,0,2.7,0.4l-0.4,0.4c-0.2,0.4,0.1,0.8,0.5,0.9c0.3,0.1,0.5-0.1,0.7-0.2
		c0.5-0.4,0-0.7,0.1-1c2.9,0.5,5.8,1.2,8.4,2.4c0.8,0.2,1.5,0.8,2.3,0.8c-0.8-0.8-2-1.2-3-1.6c-0.7-0.4-1.6-0.4-2.1-1
		c0.1-0.2,0.4-0.1,0.5-0.3c1.4-0.2,2.5-1.2,3.5-2.2c0.1-0.2,0.5-0.2,0.5-0.5c-0.4-0.4-1,0.1-1.4,0.1c-1.7,0.3-2.4,2.3-4,2.6
		c-2-0.5-4.1-1-6.1-1.5c-1-0.2-2.1-0.2-3-0.6l-2.2-0.2h-4c0-0.1-0.2-0.1-0.1-0.2c1.4-0.4,2.7-1.2,4.1-1.6l10.6-4.9
		c1.1-1,2.1-2.1,3-3.3c0-0.3-0.2-0.6-0.4-0.8c-0.3-0.1-0.6-0.1-0.8,0.2c-0.5,0.4,0,0.8,0,1.2c-0.5,0.6-1.2,1.2-1.8,1.6
		c-0.2,0-10.9,4.9-10.9,4.9c-1.6,0.7-3.2,1.4-4.8,1.8l-2.3,0.4c-0.2,0.5-0.6,0.8-1,0.9C87.5,48.6,87,49,86.3,49
		c-5.2,2-10.5,4.1-14.6,8.2c0.2-0.5,0.4-1.1,0.4-1.7c-0.1-0.6,0-1.3-0.4-1.8c-0.1-0.2-0.4-0.9-0.3-1.1L70.8,53
		c-0.4,0.9-0.7,2.5-0.3,3.4c0.1,0.7,0.7,1.6,0.2,2.2c-1.9,2.3-3,5.1-4.2,7.8c-0.5-0.1-0.7-0.5-0.9-1c1.3-1.7,2.4-3.6,2.8-5.8
		c0.3-0.2,0.1-0.7,0.4-1c-0.1-0.6,0.4-1.3,0-1.8c0.3-0.9-1.2-1.7-0.3-2.2L67.8,55c-1.7,2.2,0.9,5.6-1.1,7.8V63
		c-0.6,0.7-0.8,1.4-1.6,1.9c-1-0.4-1.3-1.5-1.9-2.3c-0.9-0.8-0.9-2.6-0.4-3.7c0.4-1.2-0.2-2.2-0.4-3.2l-0.7-0.2
		c-1,1.2-1.3,3.2-0.6,4.7c0.4,0.7,0.4,1.7,1,2.3c0.4,1.2,1.1,1.9,1.7,3c0.2,0.4-0.2,0.5-0.4,0.7C63,65.9,63,65.3,62.6,65
		c-1.3-2.8-3-5-5.1-7.3c-0.1-0.4-0.4-0.7-0.2-1.1c0.8-0.7,0.9-2.1,0.5-3c-0.1-0.2-0.3-0.4-0.3-0.6L57,52.3c0.1,1.4-0.8,2.6-0.4,4.1
		v0.1c-4.1-3.1-8.6-5.8-13.2-8l-0.4,1c1.2,0.3,4.2,2.2,4.2,2.2c1.4,0.5,2.7,1.4,4,2.1c5.4,3,9,8,11.4,13.5c0,0.4,0.4,0.9,0.2,1.4
		c-0.8-1.3-2-2-3-3c-0.3-1.9-1.4-3.7-3-4.4c-0.6-0.9-1.9-1-2.9-1.2L39.5,60C27.8,59.8,17,60.4,5.4,60.2c-1.6-0.2-3.6-0.7-4.1-2.4
		c-0.3-0.6-0.3-1.6,0-2.2c0.4-0.8,1.2-1,2-1.1c0.6,0.1,1.1,0.7,1.4,1.1c0,0.5-0.4,1-0.6,1.4c0,0.2,0.2,0.5,0.5,0.4
		c0.5-0.2,0.9-0.8,1-1.3c0-0.3,0.2-0.7-0.1-0.9c-0.2-0.8-1.1-1.4-1.9-1.6c-1-0.1-2,0.2-2.7,0.9c-1,0.8-0.9,2.2-0.6,3.4
		c0.6,1.8,2.5,3,4.3,3.2l38.6,0.2c3.8,0.2,8-0.4,11.8,0.3c1.4,0.4,2.9,1.5,3.2,3c0,0.1-0.2,0-0.3,0c-3.1-2-7.3-2.8-11.3-2.3
		c-1.6-0.1-3,0.5-4.4,0.9c-0.8,0.2-1.5-0.2-1.9-0.6c-1.4-1.3-3.9-1.2-5.8-0.7c0,0.1,0,0.2,0,0.3c1.9-0.2,3.1,1.5,4.8,1.7
		c0.4,0.1,0.7-0.4,1.1,0c-1.8,0.9-3.6,1.9-5.5,2.5c-0.6-0.1-0.9-0.7-1.4-1c-0.8-0.8-2.1-0.5-3.2-0.6c-0.4,0.1-0.7-0.2-0.9,0
		c0.3,0.6,1,1,1.7,1.3c1,0.4,2.1,0,3.1,0.6c-0.2,0.3-0.6,0.4-0.8,0.6c-1.9,0.7-3.4,2.4-5.5,2.3c-2.2,0.2-4.4-0.4-5.9-1.9
		c-0.6-1.6-2.3-2.4-4-2.3c-0.1,0.1-0.3,0.1-0.2,0.3c0.9,0.5,1.5,1.6,2.4,2.2c0.6,0.7,1.6,0,2.1,0.8c0.8,0.5,1.7,1,2.6,1.1
		c0.6,0.3,1.3,0.4,2.1,0.6l-0.3-0.3c-3.6,1.2-7.8,1.3-11.8,1.2c-1.2,0-2.3-0.4-3.5-0.4c0.2,0.2,0.6,0.4,1,0.6
		c-0.3,0.2-0.7,0.3-1.1,0.3c-0.5,0.1-1,0.2-1.5,0.4c-0.6,0-1.2,0.2-1.7,0.4c-0.7,0.7-1.5,1.5-2.3,1.8c0,0.2,0,0.4,0.2,0.4
		c0.8-0.3,1.7-0.1,2.5-0.4c1.3-0.1,2.1-1.6,3.1-2.2c1.1-0.9,2.7-0.7,4-0.5c0.8,0.2-0.1,0.5,0.2,1c0.3,0.3,0.6,0.6,1,0.5
		c0.1-0.1,0.2-0.2,0.3-0.2c0.2-0.3,0.2-0.7,0-1c0.6-0.4,1.3,0,1.9-0.2c1.5,0,3-0.4,4.5-0.4c0.2,0,0.5-0.3,0.8,0
		c-0.1,0.3-0.5,0.4-0.4,0.8s0.5,0.5,0.8,0.6c0.4-0.2,0.8-0.4,0.6-1c-0.1-0.3-0.4-0.3-0.6-0.4c0.8-0.4,1.8-0.5,2.6-0.9
		c0.6-0.1,1.2-0.3,1.7-0.6c0.5,0,1-0.5,1.4-0.3c-0.2,0.7-0.5,1.3-0.8,1.9c-0.6,2.1-1.1,4.9,0,7c0.1,0,0.2,0,0.2-0.1
		c-0.8-2.1-0.4-4.6,0.4-6.6c0.6-3.4,4-4.4,6.5-5.7l0.1,0.2c-0.7,1.8-1.7,3.4-1.5,5.6c0.1,0.4-0.2,0.7,0,1c0.7-0.4,1.1-1.2,1.5-1.8
		c0.3-1.8-0.8-4,1.1-5.4c3.3-1.3,6.3-3,10.1-3c0.1,0.1,0.4-0.1,0.4,0.2c-0.8,0.9-1.9,1.7-2.3,2.8c-1.3,1.8-1.2,4.8-0.7,6.9
		c0.4,1.2-0.7,1.9-1.2,2.9c-0.2,0.3-0.3,0.9-0.5,1.3l0.8,0.1c0.7-0.7,1.3-1.6,1.3-2.6c0.1,0.4,0.4,0.7,0.8,0.8
		c0.3-0.4-0.2-0.8-0.3-1.2c0.6-0.4,0.9,0.4,1.4,0.6c0.8,0.2,1.5,0.6,2.4,0.6l0.3-0.3c-0.9-1.4-2.6-1.6-4.1-1.7
		c-0.8-1.3-0.8-3-0.7-4.6c0.2-0.8,0.3-1.7,0.8-2.5c0.2-0.6,0.8-1.1,1.1-1.5c0.7-0.7,1.6-1.2,2.5-1.4h0.1c0,0.1,0,0.1,0,0.1
		c-1.1,0.8-1.2,2-1.8,3c-0.7,1-1,2.4-0.4,3.5c0.2,0.5,0.1,1.3,0.7,1.7c0.5-0.7,0.6-1.6,0.8-2.4c-0.1-1.3-0.9-2.6-0.2-3.8
		c0.4-1,1.2-1.4,2.1-1.8c2.2-0.2,4.1,0.9,6,1.8c0.4,0.3,1.1,0.5,1.2,1.1c0,1.1-0.6,2.2-1.5,2.7c-1.1,0.6-2.6,0.7-3.6,0
		c-0.7-0.7-0.9-1.8-0.7-2.6c0.4-0.5,1-0.9,1.7-0.6c0.4,0.2,0.8,0.6,1.3,0.4c0.2-0.1,0.3-0.4,0.2-0.6c-0.4-0.2-0.6-0.8-1.2-0.9
		c-0.8-0.1-1.7-0.1-2.2,0.4c-0.8,0.7-1.2,1.8-0.9,2.8c0.3,1.3,1.2,2.2,2.5,2.6c1.8,0.4,3.7-0.1,4.9-1.7c0.5-0.5,0.6-1.1,0.9-1.7
		c1.9,1.2,3.3,3.2,4.1,5.3c0,0.7,0.2,1.4,0,2l1.4,0.1c-0.1-0.3,0-0.7,0.1-1c0.5-2.6,2.1-4.8,4.1-6.6c0.7-0.4,0.5,0.5,0.7,0.8
		c0.6,1.5,2,2.6,3.5,3c1.7,0.3,3.3-0.1,4.3-1.4c0.5-1,1.2-2.4,0.3-3.4c-0.6-0.7-1.3-1-2.2-1c-1,0-1.7,0.7-2.2,1.5
		c0,0.3,0,0.7,0.2,0.8c0.2,0,0.5,0,0.6-0.2c0.1-0.6,0.6-0.9,1.1-1.2c0.4-0.2,0.9,0,1.3,0.2c0.4,0.4,0.5,1,0.6,1.6
		c-0.1,0.8-0.6,1.6-1.3,1.9c-1.2,0.6-2.8,0.3-3.8-0.4c-0.5-0.5-0.8-1.1-1.1-1.8c-0.1-0.6-0.3-1.2,0-1.8c1.7-1,3.6-1.8,5.7-2
		c0.8,0.2,1.5,0.7,2.1,1.3c1.8,1.9-0.4,4.6,0.9,6.6c0.5-0.1,0.5-0.7,0.7-1.1c0.6-1.4-0.2-3-0.5-4.4C80,65,79.7,64.3,79,63.5
		c0.2-0.1,0.3-0.1,0.5-0.1c0.8,0.6,1.7,1.2,2.4,2.1c1.2,1.9,1.7,4.1,1.5,6.6c-0.3,1.2-1.6,1.8-2.6,2.2c-0.4,0.3-0.9,0.8-1.1,1.3
		c0.5,0.3,1.2,0,1.6-0.2c0.8-0.3,1.2-1.2,1.7-1.7c0.1,0,0,0.2,0.1,0.2c0,0.4-0.2,1,0.2,1.2c0.2-0.6,0.2-1.4,0.4-2
		c0.5,0.6,0.6,1.3,0.8,2c0.4,0.7,1,1.7,1.9,1.8c0.2-0.4,0-0.7-0.1-1c-0.1-1-1-1.5-1.5-2.2c-1.4-1.9-0.8-4.9-1.8-7.1
		c-0.4-1.2-1.2-2-2.1-3l0.2-0.2c1.9,0,3.6,0.6,5.4,1c2.2,1.1,5.4,0.8,6.4,3.7c0.4,1.6,1.2,3.1,2.3,4.3l0.1-0.1
		c0.2-0.4,0.2-1.1,0-1.5c-0.2-2-2-2.5-2.9-4.2l0.1-0.2c1,0.3,1.9,0.5,2.9,0.9c3.2,0.9,5.4,4,5.8,7.2c0,2.6-0.5,4.7-1.5,6.8
		c-0.1,0.3-0.7,0.7-0.3,1c0.4-0.3,0.5-0.8,0.8-1.2c1.3-2.2,2-5.2,1.3-8c0-0.5-0.6-0.9-0.4-1.4c0.2,0.2,0.4,0.3,0.7,0.4
		c0.2-0.2,0.6-0.2,0.8-0.4c0-0.2,0.2-0.5,0-0.7c-0.2-0.4-0.8-0.4-1.2-0.3c-0.2,0.2-0.4,0.6-0.5,0.9c-0.4-0.7-0.8-1.6-1.4-2.1
		l0.1-0.1c1.8,0.6,3.4,1.5,5.2,2c0.4,0.2,0.8,0.4,1.4,0.4c1.5,0.6,3.3,0.8,4.9,1.2c1.2-0.1,2.2,0.4,3.4,0.2v-0.1l0,0
		c-0.4-0.6-1.4,0-1.9-0.4c-2.7-0.3-5.4-1-7.8-2c0-0.1,0.2-0.1,0.3-0.1c0.4-0.2,0.7-0.6,0.6-1c-0.2-0.3-0.5-0.4-0.9-0.4
		c-0.2,0.1-0.6,0.4-0.6,0.7c0,0.3,0.3,0.7,0.6,0.8c-0.1,0.1-0.2,0-0.4,0c-1.2-0.6-2.4-1.1-3.6-1.6c-0.4-0.1-0.8-0.4-1.2-0.5
		c-0.9-0.4-1.8-0.9-2.7-1.2c-2.5-1.3-5.4-2-8.1-3c-0.6-0.2-1.2-0.3-1.7-0.5c-1-0.3-2-0.5-3-0.8c-3.4-0.8-7.9-0.9-10.8,0.9
		c-0.5-0.2-0.8,0.6-1,0.1c0.8-2.2,3.3-2.9,5.4-3c15.9-0.2,30.8-0.3,46.5-0.5c1.8,0,3.6-0.6,4.6-2.3C128.8,57.3,129,55.7,128.4,54.6
		L128.4,54.6z M65.4,69.4c-0.2,0.5-0.5,0.9-0.4,1.4l-0.2,0.1c0.1-0.6-0.5-1-0.3-1.6c-0.3-0.5-0.3-1.1-0.6-1.6
		c-0.4-0.6,0.3-0.9,0.6-1.4c0.6,0.2,0.8,0.8,1.2,1.2C65.9,68.2,65.3,68.7,65.4,69.4L65.4,69.4z"/>
	<path class="st0" d="M108.4,66.8c0,0.1,0.2,0.2,0.2,0.4c-1.4,1.2-3.3,1.6-5.3,1.7c-0.2,0-0.3,0.2-0.5,0.1c-0.1-0.1-0.2-0.2-0.1-0.3
		C104.1,67.2,106.3,66.4,108.4,66.8L108.4,66.8z"/>
	<path class="st0" d="M102,67.5c0.2,0.6-0.2,0.9-0.6,1.1c-0.4,0-0.7-0.3-0.9-0.6c-0.1-0.3,0.2-0.5,0.3-0.7
		C101.1,66.9,101.9,66.9,102,67.5L102,67.5z"/>
	<path class="st0" d="M26.6,67.6c0.1,0.3,0,0.6-0.2,0.8c-0.2,0.2-0.5,0.2-0.7,0.2c-0.3,0-0.4-0.4-0.5-0.6c0-0.4,0.2-0.6,0.5-0.8
		C26,67.2,26.4,67.2,26.6,67.6L26.6,67.6z"/>
	<path class="st0" d="M19.5,70.2v0.3c-1,0.2-1.9,0-2.6-0.6c-0.6-0.8-1.2-1.6-2.1-2c0-0.1-0.2-0.3,0-0.4C16.8,67.5,18,69.1,19.5,70.2
		L19.5,70.2z"/>
	<path class="st0" d="M114.4,67.5c-0.9,1.4-1.7,3-3.3,3.6c-0.3,0-0.5,0.4-0.8,0.1c0.6-1.5,2-3.2,3.5-3.8
		C114,67.5,114.3,67.4,114.4,67.5L114.4,67.5z"/>
	<path class="st0" d="M28.9,68c0,0.4-0.3,0.5-0.6,0.8c-0.3,0-0.5-0.2-0.7-0.4c-0.2-0.4,0.2-0.6,0.4-0.8C28.4,67.5,28.8,67.7,28.9,68
		L28.9,68z"/>
	<path class="st0" d="M119.4,68.2c-0.4,0.5-0.2,1.3-0.6,1.8c-0.8,0.9-1.5,2-2.7,2.2c-0.2-0.4,0.3-0.8,0.5-1.2
		c0.6-1.2,1.3-2.6,2.6-3.1L119.4,68.2L119.4,68.2z"/>
	<path class="st0" d="M7.2,68.6c0.1,0.3,0.2,0.6,0,0.9c-0.2,0.2-0.6,0.3-0.9,0.2c-0.4-0.2-0.5-0.6-0.3-1C6.2,68.3,7,68.1,7.2,68.6
		L7.2,68.6z"/>
	<path class="st0" d="M5,69.1c0,0.2,0.2,0.4,0.1,0.6s-0.3,0.4-0.6,0.5c-0.4,0.1-0.7-0.2-0.9-0.5c0-0.4,0.1-0.7,0.4-0.8
		C4.4,68.6,4.8,68.8,5,69.1L5,69.1z"/>
	<path class="st0" d="M9.6,69.3c0.1,0.3,0.2,0.9-0.3,1c-0.6,0.2-0.9-0.2-1.2-0.5c0-0.4,0.2-0.6,0.5-0.8C9,69,9.4,69,9.6,69.3
		L9.6,69.3z"/>
	<path class="st0" d="M16.2,69.8c0,0.3,0,0.7-0.3,0.8c-0.2,0.2-0.6,0.1-0.8,0.1c-0.1-0.2-0.5-0.4-0.3-0.7c0.2-0.2,0.3-0.3,0.6-0.4
		C15.6,69.6,16,69.5,16.2,69.8L16.2,69.8z"/>
	<path class="st0" d="M123.3,70.1c-0.1,0.3-0.3,0.6-0.6,0.6c-0.4,0-0.7-0.1-0.9-0.4c-0.2-0.4,0.2-0.7,0.5-0.8
		C122.7,69.5,123.2,69.7,123.3,70.1L123.3,70.1z"/>
	<path class="st0" d="M116,70.3c0,0.3-0.3,0.6-0.5,0.7c-0.6,0.2-1-0.2-1.2-0.6c0.1-0.4,0.4-0.6,0.7-0.7
		C115.5,69.6,115.8,69.9,116,70.3L116,70.3z"/>
	<path class="st0" d="M120.9,70.2c0,0.3-0.2,0.6-0.4,0.7c-0.3,0.1-0.7,0.1-1-0.2c-0.4-0.3-0.1-0.6,0.2-0.8
		C120.1,69.7,120.8,69.8,120.9,70.2L120.9,70.2z"/>
	<path class="st0" d="M6.2,70.9c0.1,0.4-0.1,0.8-0.5,1c-0.4,0-0.8-0.2-0.9-0.6c0-0.4,0.1-0.7,0.4-0.8C5.6,70.4,6,70.6,6.2,70.9
		L6.2,70.9z"/>
	<path class="st0" d="M114,71.4c0.1,0.4-0.1,0.8-0.6,1c-0.3,0.1-0.5-0.1-0.8-0.3c-0.2-0.2-0.4-0.6,0-0.8
		C113,70.7,113.8,70.9,114,71.4L114,71.4z"/>
	<path class="st0" d="M27.5,71.8c0.2,0.4-0.3,0.5-0.4,0.8c-0.2,0.1-0.5,0.1-0.6,0c-0.2-0.2-0.4-0.5-0.3-0.8c0.2-0.2,0.3-0.3,0.5-0.4
		C27.1,71.2,27.3,71.6,27.5,71.8L27.5,71.8z"/>
	<path class="st0" d="M122.5,72.1c0.1,0.3-0.2,0.4-0.2,0.6c-0.2,0.2-0.6,0.2-0.9,0.2c-0.4-0.2-0.4-0.5-0.4-0.9
		c0.2-0.2,0.3-0.4,0.6-0.4C122,71.5,122.4,71.7,122.5,72.1L122.5,72.1z"/>
	<path class="st0" d="M120.1,72.2c0.2,0.5-0.3,0.7-0.6,0.8c-0.2,0-0.4-0.1-0.4,0.2c1,0.5,1.7,1.4,2.5,2.1v0.3
		c-1.4,0-2.9-0.4-3.9-1.5c-0.3-0.2-0.8-0.2-1.1-0.5c0.5-0.5,1.5-0.3,2.2-0.4c0.5-0.6-0.6-1,0.1-1.4c0.2,0,0.4-0.3,0.7-0.2
		C119.8,71.8,119.9,72,120.1,72.2L120.1,72.2z"/>
	<path class="st0" d="M103.9,72.2c0.1,0.2-0.2,0.4-0.2,0.6c-0.2,0.2-0.6,0.3-0.9,0.2c-0.2-0.3-0.5-0.5-0.4-0.9
		C102.7,71.5,103.7,71.6,103.9,72.2L103.9,72.2z"/>
	<path class="st0" d="M15.2,73.6c-0.1,0.4-0.3,0.6-0.7,0.6c-0.3,0-0.6-0.2-0.7-0.5c0-0.3,0.2-0.4,0.2-0.6
		C14.4,72.8,15.2,73,15.2,73.6L15.2,73.6z"/>
	<path class="st0" d="M18.4,73.1c0,0.6-0.6,0.9-0.8,1.4c-0.6,1.3-1.7,2.5-3.2,2.6c-0.2-0.4,0.5-0.8,0.7-1.2c0.6-1.4,1.9-2.1,3.1-2.9
		L18.4,73.1L18.4,73.1z"/>
	<path class="st0" d="M102.9,73.7c0,0.4-0.4,0.8-0.7,0.9c-0.4,0.1-0.6-0.2-0.8-0.3c-0.3-0.3-0.1-0.6,0-1
		C101.9,72.8,102.6,73.2,102.9,73.7L102.9,73.7z"/>
	<path class="st0" d="M105.4,73.9c0,0.4-0.3,0.8-0.7,0.9c-0.1-0.1-0.3,0-0.4-0.1c-0.3-0.2-0.5-0.4-0.5-0.7c0.2-0.2,0.3-0.5,0.6-0.6
		C104.6,73.4,105.2,73.5,105.4,73.9L105.4,73.9z"/>
	<path class="st0" d="M24.5,73.9c0,0.4-0.3,0.7-0.6,0.8c-0.4,0-0.6-0.2-0.8-0.5c-0.1-0.4,0.3-0.6,0.5-0.8
		C24.1,73.3,24.2,73.7,24.5,73.9L24.5,73.9z"/>
	<path class="st0" d="M27.3,74.1c-0.1,0.4-0.4,0.6-0.8,0.7c-0.3-0.1-0.6-0.2-0.7-0.5c0-0.4,0.3-0.6,0.6-0.8
		C26.7,73.5,27.2,73.6,27.3,74.1L27.3,74.1z"/>
	<path class="st0" d="M113.9,76.9c0.2,0.2,0.6,0.4,0.5,0.6c-0.6,0.3-1.1-0.4-1.7-0.6c-1-1-1.7-2-2.1-3.2c0.4-0.4,0.8,0.1,1.1,0.2
		C112.5,74.7,113.4,75.7,113.9,76.9L113.9,76.9z"/>
	<path class="st0" d="M115.4,74.1c0.1,0.3,0.1,0.6-0.1,0.9c-0.2,0.4-0.8,0.3-1.1,0.2c-0.2-0.2-0.6-0.6-0.3-0.9
		c0.1-0.3,0.5-0.4,0.8-0.5C114.9,73.7,115.1,73.9,115.4,74.1L115.4,74.1z"/>
	<path class="st0" d="M30.9,75.1c0,0.3,0.1,0.8-0.3,1c-0.4,0.1-0.8,0-1-0.5s0.2-0.6,0.5-0.8C30.5,74.7,30.7,74.9,30.9,75.1
		L30.9,75.1z"/>
	<path class="st0" d="M105.2,77.7c0.6,0.8,1,1.8,1,2.8c-0.1,0.3,0.2,0.6,0,0.8H106c-1.8-1.3-2.2-3.1-2.9-4.9
		c-0.2-0.1-0.2-0.2-0.2-0.4c0.4-0.4,0.7,0.4,1.1,0.5L105.2,77.7L105.2,77.7z"/>
	<path class="st0" d="M36.1,76.3C36,76.4,36.1,76.4,36.1,76.3c-1.5,1.2-3.8,1.9-5.6,0.8c0-0.1,0-0.3,0.2-0.4
		c1.2-0.4,2.3-0.9,3.5-0.8L36.1,76.3L36.1,76.3z"/>
	<path class="st0" d="M27,76.5c-1.3,0.8-2.6,2.5-4.2,2.9c-0.3,0.1-0.5,0.6-0.9,0.3c0.7-2.2,3.1-3.3,5.2-3.5L27,76.5L27,76.5z"/>
	<path class="st0" d="M102.9,78.3c0.1,0.3,0,0.8-0.3,0.8c-0.2,0.2-0.6,0.2-0.8,0c-0.4-0.2-0.4-0.5-0.4-0.8c0.1-0.3,0.4-0.3,0.6-0.4
		C102.4,78,102.7,78,102.9,78.3L102.9,78.3z"/>
	<path class="st0" d="M99.6,78.5c-0.2,0.6-0.9,0.9-1.4,1c-1.3,0.5-2.6-0.2-3.8-0.5c0-0.3,0.4-0.2,0.6-0.4c1.3-0.3,2.7-0.6,4-0.2
		C99.2,78.4,99.5,78.4,99.6,78.5L99.6,78.5z"/>
	<path class="st0" d="M27,79.7c-0.1,0.2-0.2,0.5-0.5,0.6s-0.6,0-0.8-0.2c-0.1-0.2-0.4-0.4-0.2-0.7c0.1-0.3,0.4-0.4,0.6-0.4
		C26.6,79.1,26.9,79.3,27,79.7L27,79.7z"/>
	<path class="st0" d="M29.4,80.1c-0.1,0.2-0.2,0.6-0.6,0.8c-0.3,0.1-0.6-0.1-0.8-0.3c-0.1-0.2-0.2-0.5-0.1-0.8
		c0.1-0.2,0.4-0.2,0.6-0.4C28.8,79.3,29.2,79.7,29.4,80.1L29.4,80.1z"/>
	<path class="st0" d="M102.1,80.5c0,0.3-0.1,0.5-0.3,0.8c-0.2,0.3-0.6,0.3-0.9,0.2c-0.3,0-0.4-0.4-0.5-0.6c-0.2-0.3,0.2-0.5,0.3-0.8
		C101.2,79.7,102,79.9,102.1,80.5L102.1,80.5z"/>
	<path class="st0" d="M103.9,80.4c0,0.2,0.2,0.4,0.1,0.6c-0.2,0.2-0.4,0.7-0.9,0.5c-0.2,0.1-0.4-0.2-0.5-0.3c-0.2-0.4,0-1,0.5-1.1
		C103.5,79.9,103.7,80.3,103.9,80.4L103.9,80.4z"/>
	<path class="st0" d="M27.9,81.5c0.1,0.4-0.1,0.8-0.4,1.1c-0.4,0.1-1,0.1-1.2-0.4c0-0.4,0-0.9,0.5-1.2C27.3,81,27.7,81.1,27.9,81.5
		L27.9,81.5z"/>
	<path class="st0" d="M30.2,81.4c-0.1,1.1-0.3,2.5-1.4,3.1c-0.6,0.1-1.3,0.7-1.9,0.3v-0.2C27.7,83.4,29.2,82.5,30.2,81.4L30.2,81.4z
		"/>
	<path class="st0" d="M95.9,82.3c0.2,0.2-0.1,0.4-0.2,0.6c-0.2,0.3-0.7,0.2-1,0c-0.3-0.1-0.3-0.5-0.2-0.8c0.1-0.2,0.3-0.4,0.5-0.4
		C95.4,81.7,95.7,82,95.9,82.3L95.9,82.3z"/>
	<path class="st0" d="M34.2,84.1c0.5,1,0.2,2.2,0.5,3.2c-0.7,0.1-1-0.7-1.4-1.1c-0.9-1.2-0.8-2.8-1.1-4.2c0.1-0.1,0.2-0.1,0.3-0.1
		c0.6,0.4,1,1.2,1.5,1.7C33.9,83.9,34.2,83.9,34.2,84.1L34.2,84.1z"/>
	<path class="st0" d="M97.9,82.6c0,0.3-0.4,0.4-0.6,0.6c-0.3,0-0.5-0.2-0.8-0.4c-0.1-0.4,0.2-0.5,0.4-0.7
		C97.4,82,97.8,82.2,97.9,82.6L97.9,82.6z"/>
	<path class="st0" d="M102.6,86.2c0,0.1,0,0.4-0.2,0.3h-0.2c-1.1-1-2.3-2.2-2.1-3.8h0.2C101.4,83.5,102.6,84.5,102.6,86.2
		L102.6,86.2z"/>
	<path class="st0" d="M99.7,84.9c0,0.3-0.2,0.6-0.4,0.8c-0.4,0.1-1.1,0.1-1.2-0.5c0-0.4,0.4-0.6,0.6-0.8
		C99.2,84.2,99.5,84.5,99.7,84.9L99.7,84.9z"/>
	<path class="st0" d="M97,85.7c-0.6,1.5-2.1,2.2-3.1,3.4c-0.2-0.1-0.1-0.4-0.1-0.6c0.4-1.5,1.6-3,3.1-3.6C97.5,85,96.9,85.4,97,85.7
		L97,85.7z"/>
	<path class="st0" d="M100,86.9c0,0.4-0.4,0.5-0.6,0.7c-0.3,0-0.6-0.1-0.9-0.4c0-0.4,0.3-0.5,0.5-0.7C99.5,86.4,99.8,86.6,100,86.9
		L100,86.9z"/>
	<path class="st0" d="M70.5,14.4c0.5,0,1,0.4,1,1c0,0.5-0.4,1-1,1H58.7c-0.5,0-1-0.4-1-1c0-0.5,0.4-1,1-1H70.5L70.5,14.4z
		 M62.2,16.1c1.1,0,0.1-1.4-0.6-1.4h-1.1c-1.1,0-0.1,1.4,0.6,1.4H62.2L62.2,16.1z M67,16.1c1.1,0,0.1-1.4-0.6-1.4h-1.1
		c-1.1,0-0.1,1.4,0.6,1.4H67L67,16.1z M70.5,14.7h-0.4c-1.1,0-0.2,1.4,0.4,1.4C71.3,16.1,71.4,14.7,70.5,14.7L70.5,14.7z"/>
	<path class="st0" d="M69.5,27.9l2.2,0.9l2.2-0.9L73,31.2l1.8-0.4l-0.6,2l0.6,1.9l-1.6-0.4l0.7,3.6l-2.2-0.8L69.5,38l0.9-3.6
		l-1.8,0.5l0.5-2L68.6,31l1.7,0.3L69.5,27.9L69.5,27.9z M72.8,33.9c0.5,0,0.5-0.7,0.5-1.3c0-1.4-1.1,0-1.6-1.3
		c-0.4,1.1-1.5,0.1-1.5,1.2c0,0.8,0,1.3,0.8,1.3L72.8,33.9L72.8,33.9z M70.6,32.6c0,0.5,0.7,0.2,1.2,0.2s1.2,0.3,1.2-0.2
		c0-0.7-0.7-0.5-1.2-0.5C71.3,32.2,70.6,31.9,70.6,32.6L70.6,32.6z"/>
	<polygon class="st0" points="64.2,32.8 64.2,32.3 63.8,32.3 64.1,32 63.9,31.6 64.3,31.7 64.6,31.3 64.8,31.7 65.2,31.6 65,32 
		65.3,32.3 64.9,32.3 64.9,32.8 64.6,32.5 	"/>
	<polygon class="st0" points="62.5,35 62.5,34.6 62.1,34.5 62.4,34.2 62.2,33.9 62.6,33.9 62.8,33.5 63,33.9 63.4,33.9 63.2,34.2 
		63.5,34.5 63.2,34.6 63.2,35 62.8,34.7 	"/>
	<polygon class="st0" points="65.4,34.7 65.4,34.3 65,34.2 65.3,33.9 65.2,33.6 65.5,33.6 65.8,33.2 66,33.6 66.4,33.6 66.2,33.9 
		66.5,34.2 66.1,34.3 66.1,34.7 65.8,34.5 	"/>
	<polygon class="st0" points="65.8,36.4 65.8,36.2 65.6,36.1 65.7,36 65.6,35.8 65.8,35.8 66,35.6 66.1,35.8 66.3,35.8 66.2,36 
		66.4,36.1 66.2,36.2 66.2,36.4 66,36.3 	"/>
	<polygon class="st0" points="63,38.3 63,37.6 62.4,37.5 62.9,37 62.6,36.4 63.2,36.4 63.6,35.7 64,36.4 64.7,36.4 64.4,37 
		64.9,37.5 64.2,37.6 64.2,38.3 63.6,37.9 	"/>
	<polygon class="st0" points="64.4,0.6 65.8,4.1 69.4,3 67.6,6.3 70.6,8.4 66.9,9 67.2,12.7 64.4,10.2 61.7,12.7 61.9,9 58.3,8.4 
		61.3,6.3 59.5,3 63,4.1 	"/>
	<path class="st0" d="M51.6,77.7c-0.4,0.2-0.6,0.3-0.5,0.7l0.5,2.1c0.1,0.4,0.1,1-0.1,1.4c-0.3,0.5-1,0.7-1.4,0.9
		c-0.3,0.1-1.1,0.2-1.7,0c-0.4-0.2-0.7-0.4-0.8-1.1l-0.5-2.2C47,78.9,46.8,79,46.3,79v-0.2l2.7-0.6v0.2c-0.5,0.1-0.8,0.2-0.6,0.8
		l0.5,2.2c0.1,0.4,0.3,1.3,1.4,1c1.4-0.3,1.2-1.3,1.1-1.8l-0.5-2c-0.1-0.4-0.2-0.6-0.9-0.5v-0.2l1.7-0.4L51.6,77.7L51.6,77.7z"/>
	<path class="st0" d="M55.6,78.1c-0.2-0.4-0.9-1.1-1.8-0.9c-0.4,0.1-0.8,0.4-0.7,0.8c0.1,0.4,0.3,0.5,1,0.6l1.3,0.2
		c0.3,0.1,1,0.3,1.1,1c0.1,0.6-0.2,1.5-1.7,1.8c-0.7,0.2-1.2,0-1.4,0.1c-0.2,0-0.2,0.2-0.2,0.3L53,82.1l-0.4-1.6l0.2-0.1
		c0.3,0.6,0.9,1.3,1.9,1.1c0.9-0.2,0.8-0.9,0.8-1c-0.1-0.4-0.5-0.5-1.1-0.6l-0.6-0.1c-1.5-0.2-1.6-0.8-1.7-1.1
		c-0.1-0.4,0-1.4,1.5-1.7c0.6-0.1,1.1,0,1.3-0.1c0.2,0,0.2-0.1,0.2-0.3l0.2-0.1l0.3,1.4L55.6,78.1L55.6,78.1z"/>
	<path class="st0" d="M60.8,80.7L57.9,81v-0.2c0.6-0.1,0.8-0.1,0.7-0.7l-0.3-3.6c-0.6,0.1-1.4,0.2-1.4,1.3h-0.2l-0.1-1.4l4.8-0.5
		l0.1,1.4h-0.2c-0.3-1.1-1.1-1-1.7-1l0.3,3.6c0.1,0.6,0.2,0.6,0.8,0.5L60.8,80.7L60.8,80.7z"/>
	<path class="st0" d="M67.5,80.7h-1.7l-1.6-2.2H64v1.3c0,0.5,0.2,0.6,0.7,0.6v0.2L62,80.5v-0.2c0.6,0,0.7-0.1,0.7-0.6l0.1-3
		c0-0.6-0.2-0.6-0.7-0.6v-0.2l2.6,0.1c0.6,0,2.3,0.1,2.3,1.2c0,0.8-0.9,1-1.3,1.1l1.6,2c0.1,0.1,0.2,0.1,0.3,0.1L67.5,80.7
		L67.5,80.7z M64,78.3c1.1,0,1.5-0.1,1.5-1c0-0.7-0.3-1-1-1c-0.4,0-0.5,0.1-0.5,0.3V78.3L64,78.3z"/>
	<path class="st0" d="M72.8,81.4l-2.6-0.3v-0.2c0.5,0,0.6,0,0.7-0.2c0-0.2-0.2-0.7-0.3-0.9l-1.8-0.2c-0.3,0.5-0.4,0.7-0.5,0.8
		c0,0.3,0.4,0.3,0.6,0.4V81l-1.6-0.2v-0.2c0.4,0,0.6-0.2,0.9-0.7l2.2-3.5h0.2l1.4,3.8c0.3,0.8,0.4,1,0.8,1L72.8,81.4L72.8,81.4z
		 M70.6,79.5L70,77.8l-1,1.5L70.6,79.5L70.6,79.5z"/>
	<path class="st0" d="M77.5,82.4l-4.6-0.8v-0.2c0.5,0,0.7,0.1,0.8-0.3l0.6-3.2c0.1-0.4-0.2-0.5-0.6-0.6v-0.2l2.8,0.5v0.2
		c-0.6-0.1-0.8-0.1-0.9,0.5l-0.6,3c-0.1,0.3,0.1,0.4,0.6,0.5c1.2,0.2,1.7-0.3,2.3-0.9h0.2L77.5,82.4L77.5,82.4z"/>
	<path class="st0" d="M80.6,83.1l-2.8-0.6v-0.2c0.4,0.1,0.7,0.1,0.8-0.3l0.7-3.2c0.1-0.4-0.3-0.5-0.6-0.6V78l2.8,0.6v0.2
		c-0.4-0.1-0.8-0.1-0.8,0.3L80,82.3c-0.1,0.4,0.2,0.5,0.7,0.6L80.6,83.1L80.6,83.1z"/>
	<path class="st0" d="M86.2,83.8l-2.6-0.3v-0.2c0.5,0,0.6,0,0.7-0.2c0-0.2-0.2-0.7-0.3-0.9L82.2,82c-0.3,0.5-0.4,0.7-0.4,0.8
		c0,0.3,0.4,0.3,0.6,0.4v0.2l-1.7-0.2V83c0.4,0,0.6-0.2,0.9-0.7l2.2-3.5H84l1.4,3.7c0.3,0.8,0.4,1,0.8,1V83.8L86.2,83.8z M83.9,81.9
		l-0.6-1.7l-0.9,1.6L83.9,81.9L83.9,81.9z"/>
	<path class="st0" d="M65.5,29c0-1.6-0.9-0.1-1.4-1.5c-0.4,1.2-1.5,0.2-1.5,1.4c0,0.5,0.1,0.8,0.4,0.9v0.5c0,0.1,0.1,0.2,0.2,0.2
		h1.7c0.1,0,0.2-0.1,0.2-0.2v-0.5C65.4,29.6,65.5,29.4,65.5,29L65.5,29z M64.1,29.3c-0.5,0-1.1,0.3-1.1-0.2c0-0.8,0.5-0.6,1-0.6
		s1.2-0.2,1.2,0.6C65.2,29.6,64.6,29.3,64.1,29.3L64.1,29.3z"/>
	<path class="st0" d="M79.7,49c0.4,0,0.7-0.3,0.7-0.7s-0.3-0.7-0.7-0.7c-0.4,0-0.7,0.3-0.7,0.7S79.3,49,79.7,49L79.7,49z"/>
	<path class="st0" d="M76.2,24.9c0,0-0.4,0.6-0.4,0.7c0,0.2,0.2,0.4,0.4,0.4s0.4-0.2,0.4-0.4C76.6,25.5,76.2,24.9,76.2,24.9
		L76.2,24.9z"/>
	<path class="st0" d="M52.3,24.9c0,0-0.4,0.6-0.4,0.7c0,0.2,0.2,0.4,0.4,0.4s0.4-0.2,0.4-0.4C52.6,25.5,52.3,24.9,52.3,24.9
		L52.3,24.9z"/>
	<path class="st0" d="M58.2,24.9c0,0-0.3,0.6-0.3,0.7c0,0.2,0.2,0.4,0.4,0.4c0.2,0,0.4-0.2,0.4-0.4C58.6,25.5,58.2,24.9,58.2,24.9
		L58.2,24.9z"/>
	<path class="st0" d="M64.2,24.9c0,0-0.4,0.6-0.4,0.7c0,0.2,0.2,0.4,0.4,0.4c0.2,0,0.4-0.2,0.4-0.4C64.6,25.5,64.2,24.9,64.2,24.9
		L64.2,24.9z"/>
	<path class="st0" d="M70.2,24.9c0,0-0.4,0.6-0.4,0.7c0,0.2,0.2,0.4,0.4,0.4c0.2,0,0.4-0.2,0.4-0.4C70.6,25.5,70.2,24.9,70.2,24.9
		L70.2,24.9z"/>
	<path class="st0" d="M52.3,33.1c0,0,0.3,0.6,0.3,0.7c0,0.2-0.2,0.4-0.4,0.4s-0.4-0.2-0.4-0.4C51.9,33.8,52.3,33.1,52.3,33.1
		L52.3,33.1z"/>
	<path class="st0" d="M52.3,41.1c0,0,0.3,0.6,0.3,0.7c0,0.2-0.2,0.4-0.4,0.4s-0.4-0.2-0.4-0.4C51.9,41.8,52.3,41.1,52.3,41.1
		L52.3,41.1z"/>
	<path class="st0" d="M53.2,47.4c0,0,0.4,0.6,0.4,0.7c0,0.2-0.2,0.4-0.4,0.4c-0.2,0-0.4-0.2-0.4-0.4C52.9,48.1,53.2,47.4,53.2,47.4
		L53.2,47.4z"/>
	<path class="st0" d="M58.2,50.8c0,0,0.4,0.6,0.4,0.7c0,0.2-0.2,0.4-0.4,0.4c-0.2,0-0.4-0.2-0.4-0.4C57.9,51.4,58.2,50.8,58.2,50.8
		L58.2,50.8z"/>
	<path class="st0" d="M76.5,33.1c0,0-0.3,0.6-0.3,0.7c0,0.2,0.2,0.4,0.4,0.4c0.2,0,0.4-0.2,0.4-0.4C76.9,33.8,76.5,33.1,76.5,33.1
		L76.5,33.1z"/>
	<path class="st0" d="M76.5,41.1c0,0-0.3,0.6-0.3,0.7c0,0.2,0.2,0.4,0.4,0.4c0.2,0,0.4-0.2,0.4-0.4C76.9,41.8,76.5,41.1,76.5,41.1
		L76.5,41.1z"/>
	<path class="st0" d="M75.6,47.4c0,0-0.4,0.6-0.4,0.7c0,0.2,0.2,0.4,0.4,0.4c0.2,0,0.4-0.2,0.4-0.4C75.9,48.1,75.6,47.4,75.6,47.4
		L75.6,47.4z"/>
	<path class="st0" d="M70.5,50.8c0,0-0.3,0.6-0.3,0.7c0,0.2,0.2,0.4,0.4,0.4c0.2,0,0.4-0.2,0.4-0.4C70.9,51.4,70.5,50.8,70.5,50.8
		L70.5,50.8z"/>
	<path class="st0" d="M64.4,54.3c0,0-0.3,0.6-0.3,0.7c0,0.2,0.2,0.4,0.4,0.4c0.2,0,0.4-0.2,0.4-0.4C64.8,55,64.4,54.3,64.4,54.3
		L64.4,54.3z"/>
	<path class="st0" d="M74.2,42.4c0.1,0.1,0.3,0.2,0.5,0.1l0.2-0.6c0,0-0.3-0.3-0.4-0.3c-0.6,0.2-1.3,0.2-1.7,0.8
		c0,0.4,0.3,0.8,0.6,1c0.2-0.1,0.3,0.2,0.4,0.3c0,0.2-0.1,0.3-0.3,0.3c-0.5-0.5-1.2,0.2-1.6-0.4c0.1-0.6,0.5-1.2,0-1.7
		c0-0.1,0.2-0.2,0.1-0.3c-0.2-0.5-0.8-0.1-1.1-0.1c-0.6-0.1-1,0.2-1.4,0.7c0,0.2,0.1,0.4,0.3,0.6c0.2,0,0.2,0,0.3,0.2l-0.4,0.2
		c0.1,0.1,0.1,0.3,0.2,0.4c-0.3,0.1-0.5-0.3-0.6-0.5c0-0.3,0-0.8-0.4-0.9c-0.1,0-0.3,0.1-0.3,0.1c-0.1,0.1-0.2,0.4-0.2,0.6
		c0,0.3,0.1,0.7,0.1,0.7s1.2,0.9,1.4,1.4c-0.3,0.7-0.3,1.6-1.1,2c-0.2,0.2-0.2,0.4-0.2,0.6l0.2,0.2c0.5-0.3,1.4-0.3,1.4-1.2
		c0.2-0.3,0.4-0.7,0.7-1c0.4-0.1,0.7,0.1,0.9,0.4c-0.1,0.6-0.5,0.9-1,1.1c-0.1,0.1,0,0.2,0,0.3c0.2,0.3,0.6,0.2,0.8,0.1
		c0.6-0.4,0.9-1.2,1.5-1.4c0.1,0.4-0.8,0.5-0.2,0.9c0.3-0.1,0.8,0,1-0.4c-0.3-0.6,0.9-0.9,0.2-1.5c0-0.6,0.6-0.8,0.6-1.4
		c-0.2-0.6-0.9-0.6-1.1-1.2C73.6,42.2,73.9,42.3,74.2,42.4L74.2,42.4z"/>
	<path class="st0" d="M46.6,49.3c0.4,0,0.7-0.3,0.7-0.7s-0.3-0.7-0.7-0.7s-0.7,0.3-0.7,0.7S46.2,49.3,46.6,49.3L46.6,49.3z"/>
	<path class="st0" d="M7.8,72c0.4,0,0.7-0.3,0.7-0.7c0-0.4-0.3-0.7-0.7-0.7c-0.4,0-0.7,0.3-0.7,0.7C7.1,71.7,7.4,72,7.8,72L7.8,72z"
		/>
	<path class="st0" d="M32.5,77.5L32.5,77.5L32.5,77.5L32.5,77.5L32.5,77.5C32.4,77.5,32.4,77.5,32.5,77.5L32.5,77.5h-0.2l0,0l0,0
		v-0.1l0,0l0,0h0.1C32.4,77.4,32.5,77.4,32.5,77.5C32.5,77.4,32.5,77.4,32.5,77.5L32.5,77.5L32.5,77.5L32.5,77.5L32.5,77.5z
		 M32.4,77.4C32.4,77.4,32.5,77.4,32.4,77.4C32.5,77.4,32.4,77.4,32.4,77.4L32.4,77.4L32.4,77.4L32.4,77.4z"/>
	<path class="st0" d="M32.6,77.4L32.6,77.4C32.6,77.4,32.5,77.4,32.6,77.4C32.5,77.4,32.6,77.4,32.6,77.4L32.6,77.4
		C32.6,77.4,32.6,77.5,32.6,77.4C32.6,77.5,32.6,77.5,32.6,77.4C32.6,77.5,32.5,77.5,32.6,77.4C32.5,77.5,32.5,77.5,32.6,77.4
		L32.6,77.4L32.6,77.4L32.6,77.4C32.5,77.5,32.5,77.5,32.6,77.4C32.6,77.5,32.6,77.5,32.6,77.4C32.6,77.5,32.6,77.5,32.6,77.4
		L32.6,77.4C32.5,77.4,32.5,77.4,32.6,77.4C32.5,77.4,32.5,77.4,32.6,77.4L32.6,77.4L32.6,77.4L32.6,77.4L32.6,77.4L32.6,77.4
		L32.6,77.4z"/>
	<path class="st0" d="M32.9,77.4L32.9,77.4L32.9,77.4L32.9,77.4L32.9,77.4L32.9,77.4L32.9,77.4L32.9,77.4L32.9,77.4L32.9,77.4
		L32.9,77.4h-0.2l0,0l0,0l0,0v0.1l0,0v-0.1l0,0l0,0l0,0H32.9L32.9,77.4C32.8,77.4,32.8,77.4,32.9,77.4
		C32.8,77.4,32.8,77.4,32.9,77.4L32.9,77.4L32.9,77.4L32.9,77.4C32.8,77.4,32.8,77.4,32.9,77.4C32.8,77.4,32.8,77.4,32.9,77.4
		L32.9,77.4L32.9,77.4L32.9,77.4L32.9,77.4z"/>
	<path class="st0" d="M32.9,77.5L32.9,77.5L32.9,77.5L32.9,77.5L32.9,77.5C32.9,77.4,32.9,77.4,32.9,77.5c0.1-0.1,0.2-0.1,0.2,0
		C33,77.5,32.9,77.5,32.9,77.5L32.9,77.5L32.9,77.5z M32.9,77.5C32.9,77.5,32.9,77.4,32.9,77.5C32.9,77.4,32.9,77.4,32.9,77.5
		C32.9,77.4,32.9,77.4,32.9,77.5C32.9,77.4,32.9,77.4,32.9,77.5C32.9,77.4,32.9,77.5,32.9,77.5L32.9,77.5z"/>
	<path class="st0" d="M33,77.4L33,77.4C33.1,77.4,33.1,77.4,33,77.4C33.1,77.5,33.1,77.5,33,77.4C33,77.5,33,77.5,33,77.4
		C33,77.5,33,77.5,33,77.4C33,77.5,33,77.5,33,77.4C33.1,77.5,33.1,77.5,33,77.4C33.1,77.5,33.1,77.5,33,77.4L33,77.4L33,77.4
		L33,77.4L33,77.4L33,77.4L33,77.4L33,77.4z"/>
	<path class="st0" d="M78.2,23.9L78.2,23.9H50.6l0,0l0,0V45c0,2.2,0.9,4,2.2,4.6l10.6,6.8c0.2,0.3,0.6,0.4,1,0.4
		c0.3,0,0.6-0.1,0.9-0.3l10.8-6.8c1.3-0.6,2.2-2.5,2.2-4.6L78.2,23.9L78.2,23.9L78.2,23.9z M77.4,45.3c-0.1,1.6-0.7,2.9-1.8,3.7
		l-10.4,6.6h-0.1c-0.2,0.2-0.5,0.3-0.8,0.3s-0.6-0.1-0.8-0.3L53.1,49c-1.1-0.8-1.6-2.1-1.8-3.7V24.6h26.1L77.4,45.3L77.4,45.3z"/>
	<path class="st0" d="M68.1,54.7l0.3-0.2C68.3,54.6,68.2,54.6,68.1,54.7L68.1,54.7z"/>
	<path class="st0" d="M47.2,83.6l-2.6,0.3v-0.2c0.5-0.1,0.6-0.1,0.6-0.3c0-0.2-0.3-0.7-0.5-0.9l-1.8,0.2c-0.2,0.5-0.3,0.8-0.3,0.9
		c0,0.3,0.4,0.2,0.7,0.2V84l-1.6,0.2V84c0.4-0.1,0.5-0.3,0.7-0.9l1.4-3.9H44l2.2,3.3c0.4,0.7,0.6,0.9,1,0.8L47.2,83.6L47.2,83.6z
		 M44.6,82.3l-1-1.5L43,82.5L44.6,82.3L44.6,82.3z"/>
	<path class="st0" d="M93,73.7c-0.5-1.2-1.5-2.1-2.7-2.5c-1.3-0.3-2.6-0.1-3.5,0.9c-1.4,1.2-0.4,3.1-0.4,4.6c0,0.3,0,0.6-0.3,0.7
		c-5.8-0.5-11.1-2-16.8-2.6c-1.3-0.2-2.6-0.2-3.9-0.4l-1.5-0.1c-5,0.2-9.9,0.4-14.6,1.6c-1,0.3-2.1,0.4-3.1,0.8
		c-0.8,0.2-1.2,0.4-2,0.4l-1.3,0.1c-0.1,0-0.3,0-0.4,0c-0.6-1.6,1.3-2.6,0.7-4.2c-0.5-1-1.5-1.9-2.7-1.7c-1.3-0.2-2.5,0.6-3.2,1.6
		c-0.9,2,0.2,4.1,0.6,6c-0.1,0.6,0.6,1.4,0,1.9c-1.3-0.9-2.9-1.4-4.5-0.9c-0.5,0.2-1.3-0.1-1.6,0.5c1.7,0.9,3.9,0.8,5.8,0.7
		c0.2-0.1,0.4-0.1,0.6,0c0.2,1-0.2,2.4,0.4,3.4c0.7,1,1.9,1.2,3.1,1.3c3.7-0.1,6.9-1.2,10.2-2c0.5,0,0.9-0.3,1.5-0.3
		c1.8-0.4,3.7-0.7,5.6-0.8c-0.8,1.1-1.3,2.3-1.7,3.6c-0.5,1.1,0.8,1.2,1.2,1.8c-1.2,0.4-2.1,1.2-3.3,1.7c-2.5-0.1-4.7,0.9-7.1,1.2
		c0,0.5,0.8,0.4,0.9,0.9c-0.1,0.4-0.5,0.4-0.8,0.6c0,0.2,0,0.3,0.2,0.3c0.2-0.3,0.8-0.1,1-0.4c0.8,0,1.5-0.2,2.2-0.3
		c0.7-0.3,1.4-0.3,2-0.8c0.8-0.2,1.3-0.8,2.2-1c1.2,0,2.3-0.4,3.4-0.5V90c-0.9,1.5-1.9,3-2.8,4.4c-0.2,0.3,0,0.6,0.3,0.6
		c0.6,0.2,1.1,0,1.5-0.2c0.8-1.4,1.6-2.8,2.3-4.3c0.3-1.4,1.3-2.1,2.3-3c0.2-0.1,0.4-0.3,0.6-0.1c-0.8,0.9-1.3,1.8-1.9,2.8
		c-0.3,1.1-0.4,2.6,0.6,3.5c0.5,0.4,1.2,0.3,1.8,0.3c1.5-0.8,3.5,0.5,4.7-1c0.7-0.1,0.8,0.7,1.2,1.1c0.7,0.2,1.4,0.9,2.1,0.4
		c0-0.4-0.5-0.8-0.8-1.2c-0.5-0.8-1.1-1.5-1.5-2.3c-0.2-0.6-0.6-0.9-0.6-1.5c0.7,0.2,1.3,0.7,2.1,0.8c0.7,0.3,1.5,0.2,2.1,0.6
		c0.5,0.7,1.3,1.1,2,1.5c1,0.5,2.1,0.6,3.1,1c0.4,0,1,0.4,1.3,0c-0.2-0.2-0.4-0.3-0.6-0.4c-0.1-0.5,0.7-0.2,1-0.6
		c-0.1-0.2-0.3-0.3-0.5-0.3c-0.6-0.3-2-0.4-2.4-0.6c-0.5-0.1-0.9-0.3-1.4-0.4c-2.4,0-3.7-2.2-5.6-3c0.4-0.4,1.1-0.7,1.4-1.3
		c0.4-0.6,0.5-1.5,0.1-2.1c-0.4-1.2-1.9-1.1-2.9-1.8l0.1-0.1c1.5-0.1,2.9,0.3,4.3,0.6c3.8,0.5,7.3,2,11.3,2c2.2,0,4.9,0.1,6-2
		c0.2-1.2,0.4-2.5,0.6-3.7C91.9,77.7,93.2,75.9,93,73.7L93,73.7z M50.2,91.9l-0.6-0.5c0.3-0.4,0.9-0.2,1.3-0.4
		c1-0.3,2.2-0.7,3.4-0.5C53.1,91.4,51.6,91.6,50.2,91.9L50.2,91.9z M75,91.2c0.9,0.4,2.9,0.8,4.2,1c-0.1,0.5-1.1,0-1,0.8
		c-1.2-0.5-2.7-0.7-3.6-1.7C74.7,91.3,74.8,91.2,75,91.2L75,91.2z M37.7,74.3c0.1-0.7,0.3-1.5,1-2c1-0.5,2.3-0.4,3.1,0.1
		c0.3,0.2,0.5,0.4,0.6,0.8c0.2,0.7-0.1,1.4-0.6,1.8h-0.4c0-0.6,0-1.3,0.2-1.8c0-0.5-0.4-0.5-0.8-0.7c-0.7-0.2-1.3,0.1-1.8,0.4
		c-0.4,0.5-0.8,1.1-0.5,1.8c0.3,0.4,0,1,0.2,1.5v0.1C38.2,75.7,37.6,75.2,37.7,74.3L37.7,74.3z M39.6,75.4c0.6,0.4,1.4,0.2,2.1,0.4
		c0.1,0.4,0.1,1-0.2,1.4c-0.7-0.2-1.5-0.1-1.9-0.7C39.7,76.1,39.5,75.7,39.6,75.4L39.6,75.4z M39.5,74.1c0.1-0.3,0-0.8,0.4-0.9
		c0.3-0.1,0.7-0.1,0.8,0.2c0,0.5-0.1,1-0.2,1.4C39.9,74.9,39.6,74.5,39.5,74.1L39.5,74.1z M58.1,86.9c-0.2-1.4,0.4-2.6,1.3-3.6
		c0.6-0.1,1.2-0.2,1.7,0.1c-1,0.3-2.3,0.5-2.6,1.8c0,0.5-0.1,0.8,0.1,1.2c0.4,0.8,1.4,0.4,2,1c0,0.2-0.2,0.4-0.4,0.5
		C59.5,87.6,58.7,87.4,58.1,86.9L58.1,86.9z M56.7,89.6c1-0.4,1.9-1.2,3-0.9C58.9,89.4,57.7,89.6,56.7,89.6L56.7,89.6z M60.4,90
		c-0.6,1.3-1.2,2.5-1.9,3.8c-0.1,0.2-0.4,0.2-0.6,0.3c0-0.6,0.6-1,0.8-1.5c0.8-1.1,1.1-2.2,2-3.3C60.9,89.6,60.4,89.7,60.4,90
		L60.4,90z M61.4,87.7v0.2h-0.1L61.4,87.7L61.4,87.7L61.4,87.7C61.5,87.7,61.4,87.7,61.4,87.7L61.4,87.7L61.4,87.7z M61.1,86.7
		c-0.7-0.1-1.3-0.3-1.9-0.5c-0.4-0.4,0-0.8,0-1.3c0.6-0.9,2.1-1.3,2.9-0.5C61.9,85.3,61.6,86,61.1,86.7L61.1,86.7z M61.9,86.7
		c0.1-0.5,0.4-1.2,0.6-1.7C62.5,85.5,62.3,86.2,61.9,86.7L61.9,86.7z M62.4,83.4c-0.5-0.1-0.8-0.7-1.3-0.7c0.5-0.2,1-0.1,1.5,0
		C62.7,82.9,62.4,83.2,62.4,83.4L62.4,83.4z M62.8,84.6L62.8,84.6v-0.4l0,0V84.6L62.8,84.6z M62.9,86.5c0-0.2,0.1-0.4,0.1-0.6
		c0.2-0.2,0.4,0.2,0.5,0.3C63.4,86.4,63.1,86.5,62.9,86.5L62.9,86.5z M63.5,84c0.2-0.6,0.2-1,0.6-1.5c0.4,0,0.8,0,1.1,0.2
		c0.1,0.8,1.1,1.9,0,2.6c-0.4,0.2-0.9,0.5-1.3,0.2C63.4,84.9,63.3,84.5,63.5,84L63.5,84z M66.4,82.9c-0.1-0.4,0.4-0.1,0.5-0.2
		l1.2,0.1C67.5,82.6,66.7,84.1,66.4,82.9L66.4,82.9z M68.4,83.4c-0.5,0.2-0.8,0.7-1.3,0.8C67.3,83.8,67.9,83.3,68.4,83.4L68.4,83.4z
		 M66.7,85.9L66.7,85.9L66.7,85.9L66.7,85.9L66.7,85.9L66.7,85.9z M66.8,88.3c0,0.1,0,0.2-0.1,0.3l-0.9-0.7
		C66.2,87.8,66.5,88,66.8,88.3L66.8,88.3z M65.7,87.1c0.1-0.1,0.3-0.1,0.4,0H65.7L65.7,87.1z M65.1,86.5c0.2-0.2,0.4-0.6,0.6-0.6
		c0,0,0,0.1,0.1,0.1C65.6,86.2,65.4,86.4,65.1,86.5L65.1,86.5z M64.2,86.4H64l0.2-0.2C64.4,86.2,64.3,86.3,64.2,86.4L64.2,86.4z
		 M64.3,87.9c0.5-0.6,1,0.3,1.2,0.8c0.6,0.9,2.1,1.7,1.5,2.9c-0.8,0.7-1.9,0-2.8,0.6c-0.4,0-1.2,0.1-1.4-0.4
		C63.3,90.4,63.7,89,64.3,87.9L64.3,87.9z M63.2,88.7l0.2-0.3c-0.3,1-0.8,2-1.3,2.9C61.9,90.2,62.9,89.5,63.2,88.7L63.2,88.7z
		 M65,93.4c-0.8,0-1.9,0.5-2.6-0.2c0-0.3-0.3-0.5-0.3-0.8c0.6-0.2,1.2,0.5,1.8,0c0.9,0,1.9-0.1,2.8,0.1c0.4,0.1,1.1-0.7,1.2,0.1
		C67.5,93.9,65.9,93,65,93.4L65,93.4z M67.3,87.7L67.3,87.7L67.3,87.7L67.3,87.7L67.3,87.7L67.3,87.7z M67.5,90.2
		c0,0.4,0.4,0.6,0.2,0.9C67.6,90.9,67.4,90.6,67.5,90.2L67.5,90.2z M68.6,92.6l-0.2,0.1c-0.2-0.2-0.1-0.6-0.1-0.8
		C68.6,92,68.8,92.3,68.6,92.6L68.6,92.6z M70.6,93.5c0,0.1-0.2,0.1-0.3,0c-1.2-1.5-1.7-3.1-2.5-4.8H68C68.9,90.3,69.7,92,70.6,93.5
		L70.6,93.5z M72.1,89.8C72,89.8,72,89.9,72,90c-1.2,0-1.9-0.6-2.8-1.2v-0.2C70.3,88.7,71.1,89.3,72.1,89.8L72.1,89.8z M71.1,84.5
		c0.5,0.1,0.5,0.6,0.6,1c0,0.9-0.5,1.6-1.3,2c-0.4,0.2-1.1,0.3-1.5,0.2c1,0,2-0.4,2.4-1.4L71.1,84.5L71.1,84.5z M70.2,84.4
		c0.2,0.6,0.6,1.1,0.4,1.8c-0.4,0.8-1.2,0.8-1.9,0.9c-0.4,0-0.6-0.1-0.9-0.3c0-0.2,0-0.3-0.2-0.4c0.1-0.5-0.9-1-0.2-1.5
		C68,84.3,69.5,82.9,70.2,84.4L70.2,84.4z M90.3,81.5c-0.3,0.4,0,1-0.4,1.4c0,0.7-0.6,1.1-1.1,1.4c-4.7,1-9.4-0.6-13.9-1.4
		c-6.4-1.4-13.8-1.8-20.3-0.3c-3.1,0.6-6,1.3-9,2.1c-1.8,0.2-3.8,0.5-5.6,0c-1.4-0.7-0.8-2.5-1.3-3.8c0.1-1-0.3-1.8-0.3-2.8
		c-0.1-0.3-0.2-0.7-0.2-1c0.6,0.1,1.2,0.5,1.8,0.7c3.3,0.6,6.3-0.4,9.4-1c3-0.6,6-1.2,9.2-1.4c3.6,0,7.2-0.2,10.6,0.4
		c1.1,0,2.1,0.3,3.1,0.4c2.2,0.3,4.3,0.9,6.5,1c0.4,0.1,0.8,0.1,1.2,0.2c3.6,0.6,7.6,1.6,11,0C91.1,78.7,90.5,80.1,90.3,81.5
		L90.3,81.5z M89.2,76.6c0,0.6-0.6,0.5-0.9,0.7h-1c-0.2-0.3-0.1-0.8-0.1-1.1C87.9,76.3,88.6,76.3,89.2,76.6L89.2,76.6z M88.8,75.6
		c0.4-0.4-0.1-3,1.1-1.3c0,0.3,0,0.8-0.3,1C89.4,75.5,89.1,75.8,88.8,75.6L88.8,75.6z M92,75.2c-0.4,0.7-0.9,1.2-1.7,1.4
		c0-1,0.9-1.6,0.6-2.7c-0.5-0.8-1.5-1-2.5-0.8c-0.4,0.2-0.2,0.6-0.3,1l-0.2,1.2c-0.8,0-0.8-0.7-1.1-1.3c0-0.8,0.4-1.7,1.2-2.1
		c0.6-0.3,1.7-0.3,2.3,0.1c0.5,0.1,1.1,0.4,1.3,0.8C92.3,73.5,92.1,74.5,92,75.2L92,75.2z"/>
	<g>
		<rect x="140.8" y="59.7" class="st0" width="306.5" height="1.3"/>
	</g>
</g>
</svg>
