<?xml version="1.0" standalone="no"?>
<!DOCTYPE svg PUBLIC "-//W3C//DTD SVG 20010904//EN"
 "http://www.w3.org/TR/2001/REC-SVG-20010904/DTD/svg10.dtd">
<svg version="1.0" xmlns="http://www.w3.org/2000/svg"
 width="700.000000pt" height="700.000000pt" viewBox="0 0 700.000000 700.000000"
 preserveAspectRatio="xMidYMid meet">
<metadata>
Created by potrace 1.11, written by Peter Selinger 2001-2013
</metadata>
<g transform="translate(0.000000,700.000000) scale(0.100000,-0.100000)"
fill="#000000" stroke="none">
<path d="M3451 6107 c-50 -128 -347 -879 -484 -1223 l-91 -231 -48 18 c-27 10
-52 18 -56 19 -11 1 -1096 326 -1267 379 -200 62 -237 73 -241 68 -3 -2 11
-31 30 -63 62 -107 215 -372 237 -411 12 -21 89 -155 172 -298 82 -143 159
-276 170 -295 79 -141 211 -367 220 -378 7 -8 7 -16 1 -20 -5 -4 -27 -19 -49
-34 -22 -15 -87 -59 -145 -99 -58 -39 -276 -189 -485 -332 -643 -441 -700
-480 -704 -483 -9 -8 5 -12 59 -18 30 -4 84 -11 120 -17 36 -5 76 -12 90 -14
50 -7 115 -17 130 -20 8 -2 38 -6 65 -9 28 -4 75 -11 105 -16 30 -5 75 -12
100 -15 25 -3 56 -8 70 -10 54 -10 88 -15 200 -30 19 -3 60 -9 90 -15 30 -5
75 -11 100 -14 25 -4 70 -10 100 -16 30 -5 71 -11 90 -14 78 -10 197 -28 225
-33 17 -2 50 -8 75 -12 45 -6 45 -7 44 -46 -1 -37 -12 -215 -19 -295 -1 -19
-6 -78 -9 -130 -4 -52 -9 -120 -11 -150 -3 -30 -7 -89 -10 -130 -3 -41 -8 -95
-10 -120 -2 -25 -6 -88 -10 -140 -3 -52 -8 -115 -10 -140 -2 -25 -7 -83 -10
-130 -3 -47 -8 -105 -10 -130 -2 -25 -7 -90 -10 -145 -4 -55 -9 -108 -12 -119
-10 -34 -8 -33 227 184 15 14 76 70 135 125 60 55 120 111 135 125 15 14 76
70 135 125 126 118 152 142 231 215 124 114 299 276 337 313 22 20 43 37 46
37 7 0 39 -29 206 -185 61 -56 124 -114 140 -129 28 -26 218 -202 276 -256 85
-80 228 -212 254 -236 17 -15 84 -78 150 -139 167 -156 209 -194 216 -195 5 0
5 6 -6 139 -4 46 -9 109 -11 140 -5 75 -12 171 -19 256 -5 67 -8 105 -20 275
-3 41 -7 100 -10 130 -2 30 -7 91 -10 135 -3 44 -8 107 -11 141 -3 33 -7 87
-9 120 -2 32 -7 102 -10 154 -4 52 -8 117 -9 145 l-1 50 45 6 c25 4 63 10 85
13 39 6 123 19 198 30 80 12 113 17 139 22 28 4 350 52 408 60 19 3 46 7 60 9
14 3 43 7 65 10 22 4 65 10 95 15 30 5 75 12 100 15 25 3 70 10 100 15 30 5
75 12 100 15 25 3 74 11 110 16 36 6 85 13 110 16 53 6 61 11 38 24 -9 5 -24
16 -32 24 -8 8 -17 15 -20 15 -2 0 -35 21 -73 47 -221 152 -320 220 -423 290
-63 43 -269 184 -457 313 -188 129 -349 240 -358 245 -16 11 -32 -18 267 500
248 431 316 548 435 754 68 118 122 216 120 218 -4 3 -79 -18 -522 -152 -143
-43 -271 -81 -340 -102 -27 -8 -84 -25 -125 -38 -286 -89 -622 -186 -627 -182
-3 4 -34 80 -70 169 -35 90 -67 172 -72 183 -5 11 -55 137 -111 280 -110 281
-111 283 -133 335 -8 19 -63 160 -123 312 -60 153 -111 278 -114 278 -3 0 -25
-51 -49 -113z"/>
</g>
</svg>
