<svg xmlns="http://www.w3.org/2000/svg" viewBox="0 0 524.41 340.16"><defs><style>.a{fill:#45c2f0;}.b{fill:#fff;}</style></defs><title>DTA-wordmark_Internal</title><rect class="a" x="12.1" y="290.88" width="505.1" height="41.93"/><path class="b" d="M189.62,7.08V249H147.69v-28c-12.26,19.23-32.25,30-58.05,30C40.3,250.91,7.4,214.4,7.4,161.27c0-52.81,32.9-88.34,81.27-88.34,26.45,0,46.44,10.76,59,30.32V7.08ZM147.69,162.24c0-31.29-20-53.13-49-53.13-28.71,0-48.7,22.17-49,53.13.32,31.29,20,53.13,49,53.13S147.69,193.54,147.69,162.24Z"/><path class="b" d="M330,238.2a82.44,82.44,0,0,1-43.22,12.71c-28.06,0-50.63-16.3-50.63-52.16V105.23H212l-.32-31h24.51V7.08h41.6V74.26h49.35v31H277.77v86c0,16.62,6.77,22.17,18.06,22.17,7.09,0,15.16-2.61,24.51-7.17Z"/><path class="b" d="M517.2,74.56V249H475.28V221.25c-12.26,18.91-31.93,29.66-57.73,29.66-49.34,0-82.24-36.51-82.24-89.64,0-52.48,32.25-88,80.63-88.34,26.44-.33,46.76,10.43,59.34,29.66v-28Zm-41.93,93.88V156.05c-2.58-28-21.61-46.94-48.7-46.94-28.71,0-48.7,22.17-49,53.13.32,31.29,20,53.13,49,53.13C453.67,215.38,472.7,196.47,475.28,168.44Z"/></svg>